<svg viewBox="0 0 200 200" xmlns="http://www.w3.org/2000/svg"><path d="M76.766,132.212c0-3.212-2.836-5.05-5.711-6.068-3.192-1.13-7.138-2.855-6.781-6.781,0-2.855,2.855-5.71,2.141-8.566-1.071-6.781-9.569-3.653-13.562-6.781A11.819,11.819,0,0,1,50,99.733c-.713-2.855-.356-14.99-.713-22.128-1.785,1.07-8.923,2.141-6.782-4.64,2.142-7.139,6.425,1.07,7.852,1.07,2.142-.356,1.071-8.209,1.071-10.707,6.424-2.141,8.566-5.71,11.421-11.778a56.8,56.8,0,0,1,5.711,3.926c1.784,1.785,4.282,5,4.639,8.566a6.375,6.375,0,0,0,.538-.562c.858,7.235.887,10.923-1.251,18.764-.673,4.037-3.4,8.105-7.5,8.923a11.453,11.453,0,0,1-6.067-.714,10.728,10.728,0,0,1-5-3.926c-.94.627,2.525,6.21,8.46,6.592a33.137,33.137,0,0,0,1.534,8.042c0,.357.357.714.714.357,2.855-.714,9.279-1.785,9.993-2.856a92.721,92.721,0,0,0-9.28,1.071q-.942-3.3-1.886-6.6a10.133,10.133,0,0,0,7.6-3.748,18.934,18.934,0,0,0,2.855-6.068c2.024-6.07,1.828-14.289.432-20.626,1.314-1.909,2.965-5.772.282-11.139-2.841-6.155-9.813-9.964-18.2-8.566C36.435,45.84,33.579,62.971,36.792,75.106a16.78,16.78,0,0,0,3.569,6.425C47.5,74.392,47.5,85.1,43.93,85.814c1.071,1.07,2.5,2.141,3.569,3.212v2.5c-5.9,2.36-10.955,6.312-12.314,12.574-2.4.126-4.682.379-6.959.632-5,.714-9.28,3.569-9.994,4.64,1.041-.781,11.381-2.7,16.767-4.1-.181,5.918,7.875,7.674,9.288,8.381,3.509,2.807,1.284,5.433.357,12.848-1.071,7.5,9.279,7.852,10.35,8.209,5,1.071,3.212,6.068,2.855,9.637-.357,2.855,1.071,11.421,10.351,8.923,6.781-1.785,5-8.566,4.639-11.779C73.553,137.922,76.766,135.781,76.766,132.212ZM40.718,61.187c-.714,0,1.335-6.5,3.569-9.28,2.059-2.567,7.495-6.067,8.209-5.353.357.356-2.919,2.382-6.782,6.781C42.717,56.748,41.075,61.187,40.718,61.187Zm20.7,51.4c-.357,0-.357-1.785-.714-2.5s-1.071-1.07-1.428-1.427a20.347,20.347,0,0,0-4.64-.357A8.257,8.257,0,0,1,50,106.158c-1.427-1.071-2.141-4.64-1.784-4.64s1.428,2.855,2.5,3.926c2.66,2.659,6.4.338,9.28,2.5a3.657,3.657,0,0,1,1.785,2.141C61.775,110.8,61.775,112.225,61.419,112.582Zm9.993,20.344c-.357,0-.714-1.785-1.071-2.5A3.559,3.559,0,0,0,68.557,129a17.4,17.4,0,0,0-2.5-1.071c-.714-.357-2.5-1.785-1.784-2.142.356-.357,1.427.714,2.5,1.071.714.357,1.785.357,2.5.714a4.168,4.168,0,0,1,2.142,2.141C72.126,131.141,72.126,132.926,71.412,132.926Z" class="svg-path-fill-color"></path><path d="M143.151,103.3c-12.849,6.781-23.2,2.856-35.691,0-11.977-2.994-23.387-8.017-35.334-4.283,0,0,9.993,17.846-4.64,20.344a21.71,21.71,0,0,1-3.23.282c-.148,3.73,3.685,5.4,6.8,6.5,2.875,1.018,5.711,2.856,5.711,6.068,0,3.569-3.213,5.71-3.927,9.279.357,3.213,2.142,9.994-4.639,11.779-9.28,2.5-10.708-6.068-10.351-8.923.357-3.569,2.142-8.566-2.855-9.637-1.071-.357-11.421-.714-10.35-8.209.454-3.632,1.734-7.79,1.523-9.752a229.343,229.343,0,0,1-27.221-9.521C6.1,116.151,3.956,131.855,5.384,148.273c.713,10.35,8.208,31.408,8.208,31.408,37.476,6.781,67.456-6.068,67.456-6.068.714-.713,5-5.71,6.068-7.851,3.926-6.068,10.35-17.846,7.852-27.84-2.141-8.209-10.35-18.559-13.563-22.485-.357-.357.35-1.063.714-.714,4.2,4.018,17.489,13.92,16.061,30.338,44.257-7.852,66.742-37.119,66.742-37.119C150.289,107.942,143.151,103.3,143.151,103.3ZM82.119,156.839c1.428-.357,3.212,0,2.855.357-1.784,1.784-3.212,1.07-4.639,1.784-3.569,1.428-4.283,3.569-6.068,3.569-.714,0,1.785-3.212,2.855-3.926A7.8,7.8,0,0,1,82.119,156.839Z" fill="#1ebd6d"></path><path d="M65.7,66.184c.357,0,5,7.5,3.569,11.778-1.07,3.212-4.639,0-4.639,0a3.861,3.861,0,0,0,2.5-1.071c1.071-1.071-.258-5.7-.671-7.066A13.908,13.908,0,0,1,65.7,66.184Z" class="svg-path-fill-color"></path><path d="M61.775,64.4a5.645,5.645,0,0,0-3.569,0c-1.083.316-2.5.714-3.569,1.071-.057-.1-.125-1.716,2.088-2.238a6.21,6.21,0,0,1,2.6.024A9.979,9.979,0,0,1,61.775,64.4Z" class="svg-path-fill-color"></path><path d="M67.486,63.685a2.308,2.308,0,0,1,.714-1.071,3.013,3.013,0,0,1,1.427-.713c1.32-.136,1.466.311,2.5,1.784H71.055c-.357,0-1.071-.357-1.428-.357A6.2,6.2,0,0,0,67.486,63.685Z" class="svg-path-fill-color"></path><path d="M65.344,82.958c.27,0-1.647,3.615-5,2.5-3.332-1.111-3.127-5-2.856-5,.357,0,1.071,2.5,3.213,3.212S64.988,82.958,65.344,82.958Z" class="svg-path-fill-color"></path><path d="M57.135 69.753 A1.071 1.071 0 1 0 59.277 69.753 A1.071 1.071 0 1 0 57.135 69.753 Z" class="svg-path-fill-color"></path><path d="M64.274 62.614 A0.714 0.714 0 1 0 65.702 62.614 A0.714 0.714 0 1 0 64.274 62.614 Z" fill="#1ebd6d"></path><path d="M68.556 68.682 A1.071 1.071 0 1 0 70.698 68.682 A1.071 1.071 0 1 0 68.556 68.682 Z" class="svg-path-fill-color"></path><path d="M76.766,75.463a22.486,22.486,0,0,1-2.142,10.351,30.079,30.079,0,0,0,4.283,1.427c1.785.357,3.212-5,3.569-6.781C82.833,79.746,79.264,76.891,76.766,75.463Z" fill="#1ebd6d"></path><path d="M46.428,77.248c-1.427-.714-6.067,2.855-7.495,4.64-1.784,1.427.357,6.067,1.071,7.495,1.071,1.427,6.067-1.071,7.5-1.785C48.927,86.527,47.5,77.962,46.428,77.248Zm-4.283,5.71c-.565,1.156-.714,3.569-1.07,3.569S40.187,85.163,40,84.386a4.174,4.174,0,0,1,2.5-3.926c.714-.357,2.06-1.061,2.142-.714C44.827,80.523,42.641,81.944,42.145,82.958Z" fill="#1ebd6d"></path><path d="M118.524,18.715c-4.283,6.424-8.566,12.848-12.492,19.63-1.427-2.5-3.212-4.64-4.64-7.139-.713-1.07-3.2-.01-2.5,1.071,1.826,2.829,3.926,6.068,5.711,8.923.356.714,2.134.353,2.5-.357a198.9,198.9,0,0,1,13.206-21.415C121.379,18.358,119.238,18,118.524,18.715Z" fill="#1ebd6d"></path><path d="M108.887,24.425A13.388,13.388,0,0,0,97.466,27.28a12.551,12.551,0,0,0-3.926,9.637c.41,4.635,4.274,8.248,8.566,9.28a17.076,17.076,0,0,0,13.92-2.5c4.687-3.506,5.353-9.636,3.212-14.99-.357-.714-2.5,0-2.5.714,6.986,19.209-16.856,20.4-19.986,8.923-1.071-3.213-.357-6.068,1.427-8.923a8.6,8.6,0,0,1,3.569-3.569,7.827,7.827,0,0,1,5.711-.714,3.213,3.213,0,0,0,1.784-.357C108.887,25.139,109.6,24.425,108.887,24.425Z" fill="#1ebd6d"></path><path d="M37.149,178.61a67.8,67.8,0,0,1-1.785-20.7c.714-7.138,1.785-14.276,1.071-21.057a27.966,27.966,0,0,0-3.212-11.065c-.322-.614-.5-.247-.357,0,1.427,3.213,1.784,6.782,2.141,10.351s-2.644,24.635-2.141,31.765c.277,3.932.713,8.209,2.855,11.421C36.435,180.038,37.505,179.681,37.149,178.61Z" class="svg-path-fill-color"></path><path d="M166.35,49.766c-1.071,4.283-3.033,17.109-3.212,19.273-.177,2.134-.357,4.283.357,6.067.357.357,1.07.357,1.07,0,.714-1.784,1.071-10.35,1.428-12.492.357-4.282,1.071-8.208,1.428-12.491C167.064,49.052,166.35,49.052,166.35,49.766Z" class="svg-path-fill-color"></path><path d="M183.482,54.406a36.209,36.209,0,0,0-6.782,9.636c-1.07,1.785-4.283,10.35-3.926,12.492a.684.684,0,0,0,1.071.357c.714-.714,2.141-5,2.5-6.068.714-1.784,4.283-9.279,5.354-11.064,1.071-1.427,1.785-3.212,2.855-4.64C184.552,54.406,183.839,53.692,183.482,54.406Z" class="svg-path-fill-color"></path><path d="M162.067,106.871c6.781,1.071,12.492-4.64,15.347-9.993,3.926-6.425,7.138-13.206,10.707-19.63,1.071-1.428,4.283-5.711,5-6.425s1.428-1.07,1.785-2.141c.357-.357-.357-1.071-.714-1.071-1.428.357-5.068,2.462-11.421,14.99-1.805,3.559-9.637,23.2-21.058,23.2C161.71,106.157,161.71,106.871,162.067,106.871Z" class="svg-path-fill-color"></path><path d="M159.926,76.891c-2.007-3.512-8.2-10.762-12.135-9.637-2.869.41-8.566,8.453-8.566,12.492,0,1.071,1.427.714,1.784.357.235-.351,4.081-9.569,7.5-10.707,3.224-.538,7.21,4.354,11.065,8.209C159.926,77.605,160.282,77.248,159.926,76.891Z" class="svg-path-fill-color"></path><path d="M137.8,82.244c-1.784,1.428-2.5,3.926-2.855,6.068-.714,6.424,5.71,11.064,10.707,13.919,1.071.714,2.5,1.785,3.569,1.428,2.5-1.071-1.784-3.212-2.5-3.569a37.879,37.879,0,0,1-7.5-5.711c-3.286-3.285-2.174-7.04-.714-11.421C138.511,82.244,138.154,81.888,137.8,82.244Z" class="svg-path-fill-color"></path><path d="M142.437,82.244c2.141,1.785,3.569-1.427,5-2.141A2.923,2.923,0,0,1,151,81.531c.357.713.714,3.569,1.784,3.569,1.785,0,1.071-2.856.714-3.926-1.071-3.212-5.71-4.64-8.209-1.785-.714.714-1.427,2.855-2.855,2.5C142.437,81.531,142.08,81.888,142.437,82.244Z" class="svg-path-fill-color"></path></svg>
