<svg viewBox="0 0 200 200" xmlns="http://www.w3.org/2000/svg"><path d="M91.732,154.086a25.529,25.529,0,0,0,1.087-4.252c.054-.427-.565-.524-.756-.207-2.165,3.576-7.082,22.155-8.2,37.689a6.923,6.923,0,0,0,.027,2.285.6.6,0,0,0,1.142,0C85.656,188.016,85.542,174.327,91.732,154.086Z" class="svg-path-fill-color"></path><path d="M104.364,152.1c-1.022.354-.8,1.459-2.215,3.454-2.968,4.17-9.007,5.282-11.517,6.632-.44.237-.152.757.357.688a26.875,26.875,0,0,0,9.233-3.756,11.541,11.541,0,0,0,4.225-4.9c.3-.62.8-1.362.371-2.009A.351.351,0,0,0,104.364,152.1Z" class="svg-path-fill-color"></path><path d="M112.359,178.771c.313-.663-.062-.985-1.06-2.669-2.439-4.117-1.435-.508.028-15.7a46.426,46.426,0,0,0,.358-6.77c-.022-.427-.679-.563-.757-.1-.558,3.333-.6,6.19-1.707,13.8-1.126,7.72-1.357,5.743,1.652,10.788.281.472.495.88,1.087.908A.5.5,0,0,0,112.359,178.771Z" class="svg-path-fill-color"></path><path d="M113.914,186.711a25.59,25.59,0,0,0-1.046-6.1.472.472,0,0,0-.922.124,72.515,72.515,0,0,1,.509,9.274c-.021.579-.261,2.165.757,2.064.936-.092.764-1.664.771-2.284C113.994,188.761,113.969,187.729,113.914,186.711Z" class="svg-path-fill-color"></path><path d="M140.333,165.617a.6.6,0,0,0,.509-.895,4.041,4.041,0,0,0-1.417-1.183c-4.831-3.008-6.948-7.654-9.921-11.338-.3-.373-1.007.028-.826.481a28.174,28.174,0,0,0,7.844,10.939C137.493,164.4,139,165.778,140.333,165.617Z" class="svg-path-fill-color"></path><path d="M114.588,154.691c-.356,2.11-.176,4.391-.468,10.829-.447,9.867-.859,9.632-.5,10.816a.478.478,0,0,0,.867.11c.427-.819.43-1.515.7-5.284.23-3.189.868-13.28.221-16.443A.43.43,0,0,0,114.588,154.691Z" class="svg-path-fill-color"></path><path d="M153.474,187.771c.024-1.64.024-5.506-.151-7a4.576,4.576,0,0,0-.523-2.147.479.479,0,0,0-.881.234,7.771,7.771,0,0,0,.262,1.61c.248,1.666.259,8.034.22,9.15-.028.8-.509,2.353-1.638,1.707a.711.711,0,0,0-.165-.055,4.926,4.926,0,0,0,.523-1.734c.027-.33-.081-1.011-.564-.908s-.429,1.086-.55,1.444a5.581,5.581,0,0,1-.95,1.872,1.179,1.179,0,0,1-1.72.206.225.225,0,0,0-.069-.055,8.06,8.06,0,0,0,.62-1.1c.253-.561.781-1.51.261-2.022a.364.364,0,0,0-.4-.1c-.509.193-.51.6-.66,1.074a6.3,6.3,0,0,1-1.844,2.793c-.467.332-.812.179-1.294.083a10.728,10.728,0,0,0,1.018-3.11c.1-.758-1.041-1.087-1.155-.317-.133.895-1.522,5.664-3.1,4.046-.72-.74-.521-2.16-.441-3.1a23.89,23.89,0,0,1,.592-3.468c.1-.412-.5-.692-.7-.3a10.8,10.8,0,0,0-.674,1.679,4.231,4.231,0,0,1-.413-.275c-1.831-1.424-1.242-2.518-.234-4.4,2.6-4.873,3.177-5.672,3.674-7.266a.4.4,0,0,0-.66-.385,21.633,21.633,0,0,0-2.546,4.018c-1.774,3.2-3.636,5.667-2.257,7.8a4.649,4.649,0,0,0,2.147,1.844,11.153,11.153,0,0,0-.151,1.4c-.073,1.321.023,2.883,1.279,3.661,1.345.832,2.436.082,3.234-1.129.442.685,1.82.88,3.082-.564a3.6,3.6,0,0,0,.234-.275,1.8,1.8,0,0,0,2.5.22,4.115,4.115,0,0,0,.936-1.018c.368.734,1.777.758,2.56-.22C153.626,190.591,153.457,189,153.474,187.771Z" class="svg-path-fill-color"></path><path d="M117.9,84.156c-.052-.275-.428-.234-.509,0a7.909,7.909,0,0,0,.358,5.587c.376.831.684.75,1.059.537a.65.65,0,0,0,.248-.853C117.7,86.652,118.275,86.123,117.9,84.156Z" class="svg-path-fill-color"></path><path d="M71.684,17.7a8.988,8.988,0,0,0-6.908.165c.311-1.553-.368-7.806.344-9.164.226-.431.591-.357.991-.152,2.186,1.122,2.653,5.675,2.958,8.2a.283.283,0,0,0,.565,0c.458-3.2-.283-8.391-3.33-9.508a1.652,1.652,0,0,0-2.34,1.032c-.993-1.2-2.7-1.044-3.619,1.459a1.823,1.823,0,0,0-2.38-.055A4.387,4.387,0,0,0,57,11.613c-1.074-.573-3.142.947-2.656,5.7.342,3.338,2.019,3.973,2.119,4.073a7.146,7.146,0,0,0,.523,3.605c1.113,2.928,3.06,3.076,4.238,4.417.193.22.317.468.495.7.317-.152.675-.3,1.005-.441-.344-1.445-2.2-2.122-3.247-2.986-1.85-1.522-1.875-3.951-2.106-5.105a1.532,1.532,0,0,0,1.28-.99,3.122,3.122,0,0,0,1.17.33c-.684,1.594.907,3.86,4.871,2.614a14.41,14.41,0,0,0,2.82-1.1c.441-.191.152-.761-.22-.811-1.456-.2-2.724.727-4.128.921-1.768.245-2.992-.774-1.486-1.692,2.7-1.644,6.4-3.23,9.371-2.105a.726.726,0,0,1,.564.935c-.413,2.547-3.584,5.206-2.518,8.105a.282.282,0,0,0,.55-.069c.082-3.161,2.277-4.728,3.014-7.32A2.039,2.039,0,0,0,71.684,17.7ZM57.593,20.282c-.283.553-.874.09-1.169-.234A4.9,4.9,0,0,1,55.337,17.2a9.968,9.968,0,0,1,.055-2.835c.11-.564.619-2.147,1.376-1.94-.5,2.21-.333,5.8.99,7.43C57.7,19.979,57.678,20.117,57.593,20.282Zm2.546-.551c-2.931.257-3.052-6.536-1.651-9.026.356-.634,1.032-.482,1.568-.165a13.235,13.235,0,0,0-.233,5.339A6.1,6.1,0,0,0,61.1,19.085C60.786,19.464,60.581,19.693,60.139,19.731Zm2.009-.743a4.218,4.218,0,0,0-.537-1.4,10.933,10.933,0,0,1-.068-7.61c.165-.426.411-1.089.866-1.279s.936.165,1.239.564c-.36,1.862-.142,8.372.55,8.834C63.943,18.158,62.525,18.8,62.148,18.988Z" class="svg-path-fill-color"></path><path d="M107.254,77.015c.715.168,1.276-1,.825-1.61a.615.615,0,0,0-1.087.11C106.75,75.938,106.631,76.807,107.254,77.015Z" class="svg-path-fill-color"></path><path d="M111.767,77.084a1.023,1.023,0,0,0,.509-1.514.581.581,0,0,0-1.018,0,1.193,1.193,0,0,0-.11,1.266A.527.527,0,0,0,111.767,77.084Z" class="svg-path-fill-color"></path><path d="M110.254,75.309c0-.3-.479-.494-.62-.165a21.538,21.538,0,0,0-1.114,4.128c-.1.454-.277,1.007.179,1.334.424.306,1.2.151,1.665.083.66-.1.412-1.015-.152-1.087a3.961,3.961,0,0,0-.66-.014c.055-.248.164-.537.192-.688A18.992,18.992,0,0,0,110.254,75.309Z" class="svg-path-fill-color"></path><path d="M106.937,85.175a3.84,3.84,0,0,0,2.931,1.279,2.737,2.737,0,0,0,2.229-1.816,5.52,5.52,0,0,0,.757-3.591A.588.588,0,0,0,112,80.7a7.751,7.751,0,0,1-5.366.977.379.379,0,0,0-.207.729c.151.057.3.11.441.165C105.979,82.841,106.331,84.449,106.937,85.175Zm4.83-3.014a5.783,5.783,0,0,1-.619,1.789c-.349.693-.713,1.432-1.61,1.28a2.708,2.708,0,0,1-1.748-.977c-.573-.859-.326-1.358-.522-1.555A6.894,6.894,0,0,0,111.767,82.161Z" class="svg-path-fill-color"></path><path d="M157.96,136.087C156.244,120.111,149.466,99.9,135.655,92a21.426,21.426,0,0,0-8.834-2.89c-8.1-.658-11.72,5.251-20.255,2.835C94.719,88.59,86.331,66.207,70.322,29.556c-.181-.412-.316-1.284-.84-1.376-.2-.034-.177-.03-2.435.633-1.772.52-3.551,1.032-5.312,1.555a.214.214,0,0,0-.413-.028c-.072.235-.189.356-.013.5-.081,11.487,3.477,25.529,6.935,36.437,4.735,14.934,7.919,21.1,12.7,28.8,5.553,8.94,5.839,12.354,6.33,12.453,2.946,10.789,3.262,22.6,4.224,36.34a24.243,24.243,0,0,1,.207,3.771.2.2,0,0,0,.165.206,94.264,94.264,0,0,0,48.628.275c.675,8.463,2,17.333.991,25.924a.183.183,0,0,0,.179.179,34.957,34.957,0,0,1,10.7,1.555.189.189,0,0,0,.234-.124C156.87,160.966,159.7,152.267,157.96,136.087Zm-49.151-13.525c-4.625-3.06-5.1-3.188-5.532-4.074a.17.17,0,0,1,.138-.248c2.42-.134,5.4-.452,6.467-.591.33-.043.374-.013.523-.3.53-1.035.929-2.53,2.7-6.99a.182.182,0,0,1,.33-.041c1.1,2.288,1.838,3.87,2.725,6a2.851,2.851,0,0,0,.344.839c.123.138-.056.043.178.1a24.281,24.281,0,0,1,6.867.536.191.191,0,0,1,.124.317,56.963,56.963,0,0,1-4.844,4.444,3.317,3.317,0,0,1,.124,1.087c.2,2.119.272,4.27.261,6.413a.192.192,0,0,1-.316.137c-3.405-3.076-5.328-4.292-5.656-4.72-1.183.909-2.367,1.83-3.453,2.849a9.189,9.189,0,0,1-2.78,2.3c-.151.057-.248-.1-.234-.234A46.078,46.078,0,0,1,108.809,122.562Z" fill="#1ebd6d"></path><path d="M56.658,51.2a20.821,20.821,0,0,0-5.119-1.417c-.33-1.734-.671-3.452-1.018-5.174-.114-.564-.927-.5-1.087,0-.64,1.988-1.459,3.866-2.271,5.793a.651.651,0,0,0-.33-.1,14.611,14.611,0,0,0-4.844.688.607.607,0,0,0,0,1.156,18.8,18.8,0,0,1,3.647,2,28.381,28.381,0,0,0-1.6,4.871.607.607,0,0,0,.88.674A9.722,9.722,0,0,0,48.842,56.1a35.018,35.018,0,0,0,3.316,3.962c.318.329,1.019.1.963-.4-.216-1.913-.523-3.825-.922-5.7A22.609,22.609,0,0,0,56.782,52.3.614.614,0,0,0,56.658,51.2Zm-8.38,3.481a8.771,8.771,0,0,1-2.725,3.193A25.14,25.14,0,0,1,46.888,54.2a.626.626,0,0,0-.22-.826,18.817,18.817,0,0,0-2.752-1.693c2.646-.5,3.305.085,3.481-.619a.416.416,0,0,0,.427-.165,25.979,25.979,0,0,0,1.967-4.045c.234,1.2.453,2.394.688,3.577.141.709.981.151,4.541,1.363A21.168,21.168,0,0,1,51.4,52.948a.587.587,0,0,0-.4.688c.294,1.42.564,2.849.771,4.294a34.243,34.243,0,0,1-2.505-3.248A.589.589,0,0,0,48.278,54.682Z" class="svg-path-fill-color"></path><path d="M65.23,101.137c-1.746-3.207-3.9-6.167-5.862-9.261a.574.574,0,0,0-1.045.44,14.424,14.424,0,0,1-1.541,9.4,12.956,12.956,0,0,0-3.083-4.2c-.331-.3-1-.111-.949.4.641,6.9-7.2,12.437-4.555,19.5a6.126,6.126,0,0,0,3.041,3.591c.288.126.621-.221.358-.468-7.465-7,1.808-13.963,2.284-21.259a11.188,11.188,0,0,1,2.271,3.867.576.576,0,0,0,1.045.137,15.555,15.555,0,0,0,2.5-8.848c2.807,4.238,5.867,8.462,7.017,13.472a13.107,13.107,0,0,1-.523,8.256,10.062,10.062,0,0,1-12.411,5.118c-.732-.283-1.046.894-.317,1.17C61.605,125.528,74.151,117.52,65.23,101.137Z" class="svg-path-fill-color"></path><path d="M126.752,32.666c1.444-.963,1.377-3.271-1.087-4.39a11.315,11.315,0,0,0-6.88-.509,10.157,10.157,0,0,0,.1-4.706,9.091,9.091,0,0,0-2.353-4.293,1.977,1.977,0,0,0-2.064-.248,2.22,2.22,0,0,0-1.018,1.858c-.277,2.5.16,7.118-2.807,9.1a.624.624,0,0,0-.1.1,1,1,0,0,0-.275-.5.461.461,0,0,0-.316-.578,20.461,20.461,0,0,0-3.082-.193c-.922-.013-1.753.15-2.106,1.1a18.982,18.982,0,0,0-.344,6.123c.21,2.259.249,3.535,2.587,3.633a6.943,6.943,0,0,0,2.917-.4,1.366,1.366,0,0,0,.771-.853c1.252,1.279,2.724,2.531,4.554,2.642a2.631,2.631,0,0,0,1.61,2.022,7.628,7.628,0,0,0,4.087.124A8.578,8.578,0,0,0,124.8,41.4c.7-.534,1.018-1.665.275-2.188a3.716,3.716,0,0,0,1.459-1.156,1.541,1.541,0,0,0-.33-2.2A1.994,1.994,0,0,0,126.752,32.666Zm-17.42,4.871a2.033,2.033,0,0,1-.592.138,7.97,7.97,0,0,1-1.514.137c-.344,0-.876.025-1.1-.289a3.515,3.515,0,0,1-.289-1.348,21.354,21.354,0,0,1-.11-4.5c.164-2.2.267-2.112,1.129-2.119.839-.007,1.692-.014,2.532-.1-.171.634.1,1.261.1,7.527C109.51,37.248,109.54,37.388,109.332,37.537ZM122.927,36a8.252,8.252,0,0,1-3,.454,2.514,2.514,0,0,1-1.349-.358c-.33-.275-.2-.565-.082-.922a.411.411,0,0,0-.4-.523c-1.719.077-1.477,4.388,4.733,2.574a26.59,26.59,0,0,0,2.684-1.032c.027.027.041.082.082.11,1.4,1.224-2.1,2.343-2.793,2.545a7.27,7.27,0,0,1-3.619.193c-.413-.11-.43-.287-.647-.606a.456.456,0,0,0-.688-.1.851.851,0,0,0,.028,1.225,2.454,2.454,0,0,0,1.472.66,9.38,9.38,0,0,0,4.995-.729c.078.233,1.09.723-1.307,1.61a12.677,12.677,0,0,1-5.105.619c-.755-.147-1.722-.7-1.6-1.61a.554.554,0,0,0-.536-.688c-2.658.148-4.414-2.863-4.954-2.931,0-7.871-.448-6.2.083-6.426,3.323-1.405,3.558-5.3,3.729-8.421.031-.578-.078-2.567,1.032-1.94a4.9,4.9,0,0,1,1.527,2.312,8.48,8.48,0,0,1,.344,5.421.61.61,0,0,0,.33.7.321.321,0,0,0,.3.358c2.148.041,4.449-.136,6.5.619.772.285,2.067.933,1.83,1.981-.115.508-.634.687-1.087.84q-.786.265-1.569.5c-1.727.506-5.064,1.512-5.82-.11-.7-1.505,1.935-1.452,2.889-1.569a6.974,6.974,0,0,0,1.638-.4c.3-.111.385-.63,0-.688a12.031,12.031,0,0,0-3.44.069,2.766,2.766,0,0,0-2.2,1.211,2.229,2.229,0,0,0,.358,2.449c1.327,1.624,4.139.973,6.137.427a19.539,19.539,0,0,0,2.669-.812C127.032,34.79,125.113,35.309,122.927,36Z" class="svg-path-fill-color"></path><path d="M135.366,120.827c.515,3.765,2.27,7.374,4.238,25.14.212,1.917.18,2.553.537,3.069a.4.4,0,0,0,.688,0,5.2,5.2,0,0,0,.041-2.615c-.174-1.579-.4-3.948-1.06-8.366-.621-4.15-2.519-13.982-3.908-17.3C135.793,120.5,135.319,120.482,135.366,120.827Z" class="svg-path-fill-color"></path><path d="M122.734,67.892c-1.07-2.112-3.014-1.583-4.431-2.711-1.471-1.17-2.38-2.917-3.743-4.21-3.408-3.236-7.2-3.372-10.072-1.225-4.28,3.2-3.853,10.588,1.128,12.632a11.055,11.055,0,0,0-.963,3c-.279,1.226-.537,2.435-.757,3.66-.372,2.077-.8,4.375.083,6.412a5.664,5.664,0,0,0,4.555,3.261c-.106.632-.059.811-.276,2.7a.683.683,0,0,0,.73.757.7.7,0,0,0,.645-.6,21.983,21.983,0,0,0,.056-2.786,7.535,7.535,0,0,0,3.275-.771,7.333,7.333,0,0,0,3.784-4.444.44.44,0,0,0-.729-.427c-1.149,1.066-1.8,2.476-3.137,3.358-2.8,1.852-6.6.908-7.692-1.541-.756-1.693-.353-3.729-.083-5.477.624-4.041,1.2-5.463,1.184-6.853a15.82,15.82,0,0,0,5.586.427,27,27,0,0,0,3.014-.385,23.586,23.586,0,0,1,.949,5.256.48.48,0,0,0,.716.413c1.206-.755,2.349-1.135,3.454-.33,1.4,1.016.378,4.769-2.271,4.114-1.11-.275-1.185-1.015-1.789-1.115a.487.487,0,0,0-.564.317c-.426,1.142,1.486,1.982,2.3,2.119,3.8.639,5.309-4.283,3.11-6.055a12.983,12.983,0,0,0,2.133-4.651A6.78,6.78,0,0,0,122.734,67.892Zm-16.815,2.064c-2.084.89-4.394-4.787-2.243-6.811a.221.221,0,0,1,.372.165c.079,1.02-.707,3.223.784,5.132.332.426.826.606,1.156,1.005A.321.321,0,0,1,105.919,69.956Z" class="svg-path-fill-color"></path><path d="M95.269,16.2c-1.215-1.455-2.477-2.848-3.812-4.183a22.851,22.851,0,0,0,2.917-3.867.573.573,0,0,0-.646-.839,23.45,23.45,0,0,0-5.092,1.61c-1.224-1.252-2.443-2.511-3.66-3.757a.567.567,0,0,0-.936.551,60.047,60.047,0,0,1,1.253,6.1.477.477,0,0,0-.276.1,13.8,13.8,0,0,0-3.687,3.206.606.606,0,0,0,.578,1,19.165,19.165,0,0,1,4.169-.33A28.9,28.9,0,0,0,87.4,20.708a.6.6,0,0,0,1.087.152,9.781,9.781,0,0,0,1.321-5.188,34.159,34.159,0,0,0,4.912,1.486A.584.584,0,0,0,95.269,16.2Z" class="svg-path-fill-color"></path><path d="M63.441,111.168a15.365,15.365,0,0,0-2.531-7.183.216.216,0,0,0-.386.041,17.908,17.908,0,0,1-2.779,6.8,6.761,6.761,0,0,0-2.6-3.592c-.137-.1-.261,0-.3.124a.134.134,0,0,0-.1.11c.231,2.4-1.789,3.849-1.789,7.2a3.83,3.83,0,0,0,3.3,4.073C60.557,119.632,63.705,116.129,63.441,111.168Z" fill="#1ebd6d"></path></svg>
