<?xml version="1.0" encoding="UTF-8"?>
<svg version="1.1" xmlns="http://www.w3.org/2000/svg" width="250" height="80">
<path d="M0 0 C8.54773422 4.7744101 15.15166268 11.92843271 18.203125 21.30078125 C19.86652474 30.28640142 19.41759112 39.56882008 14.6015625 47.453125 C9.04295623 55.02394673 2.16272036 61.73615651 -7.3984375 63.453125 C-18.95022315 64.22324404 -27.56687045 63.67190052 -36.7109375 56.015625 C-44.71486784 48.50302503 -48.54570336 41.17975635 -49.0234375 30.078125 C-48.75019278 20.75011548 -45.3895633 13.40902998 -39.1484375 6.515625 C-28.46606671 -3.23680726 -13.28236806 -5.56370579 0 0 Z " fill="#0D548F" transform="translate(48.3984375,2.546875)"/>
<path d="M0 0 C8.55879697 4.7805893 15.1244819 11.92599621 18.20703125 21.29296875 C19.72611181 29.61031085 19.25639077 37.83889945 15.6015625 45.453125 C14.9415625 45.453125 14.2815625 45.453125 13.6015625 45.453125 C13.1065625 42.483125 13.1065625 42.483125 12.6015625 39.453125 C13.2615625 39.453125 13.9215625 39.453125 14.6015625 39.453125 C14.79974533 32.74793914 14.91001051 26.80135702 12.6015625 20.453125 C11.8178125 20.329375 11.0340625 20.205625 10.2265625 20.078125 C7.6015625 19.453125 7.6015625 19.453125 5.6015625 17.453125 C5.8078125 18.401875 6.0140625 19.350625 6.2265625 20.328125 C6.3503125 21.359375 6.4740625 22.390625 6.6015625 23.453125 C4.13120538 25.92348212 3.2055618 25.80354781 -0.2109375 25.890625 C-4.13573449 25.81699966 -5.13947062 25.64735016 -8.3984375 23.203125 C-12.47573898 17.59683547 -12.47573898 17.59683547 -12.2265625 13.91015625 C-11.94039062 12.60111328 -11.94039062 12.60111328 -11.6484375 11.265625 C-11.46796875 10.38519531 -11.2875 9.50476562 -11.1015625 8.59765625 C-10.86953125 7.88996094 -10.6375 7.18226562 -10.3984375 6.453125 C-9.7384375 6.123125 -9.0784375 5.793125 -8.3984375 5.453125 C-10.8734375 4.958125 -10.8734375 4.958125 -13.3984375 4.453125 C-13.7284375 6.763125 -14.0584375 9.073125 -14.3984375 11.453125 C-15.4709375 11.55625 -16.5434375 11.659375 -17.6484375 11.765625 C-21.32219584 12.43914736 -22.65001346 13.11187489 -25.3984375 15.453125 C-26.0584375 15.453125 -26.7184375 15.453125 -27.3984375 15.453125 C-28.0584375 16.773125 -28.7184375 18.093125 -29.3984375 19.453125 C-30.0584375 19.453125 -30.7184375 19.453125 -31.3984375 19.453125 C-31.3984375 17.803125 -31.3984375 16.153125 -31.3984375 14.453125 C-32.0584375 14.783125 -32.7184375 15.113125 -33.3984375 15.453125 C-33.3984375 16.773125 -33.3984375 18.093125 -33.3984375 19.453125 C-33.6965799 20.79476579 -34.02086942 22.13163673 -34.3984375 23.453125 C-34.7284375 22.463125 -35.0584375 21.473125 -35.3984375 20.453125 C-36.3884375 20.123125 -37.3784375 19.793125 -38.3984375 19.453125 C-38.7284375 18.793125 -39.0584375 18.133125 -39.3984375 17.453125 C-40.7184375 22.403125 -42.0384375 27.353125 -43.3984375 32.453125 C-44.0584375 31.793125 -44.7184375 31.133125 -45.3984375 30.453125 C-45.11296159 39.01740235 -42.48610013 47.04570863 -36.55078125 53.4453125 C-34.88189147 54.86971524 -33.16620315 56.15619282 -31.3984375 57.453125 C-30.38229306 58.43671561 -29.3775175 59.43263377 -28.3984375 60.453125 C-34.47850147 59.42168558 -38.50802544 54.39604851 -42.6484375 50.140625 C-48.33093371 41.41393439 -49.80789687 32.80350605 -48.3984375 22.453125 C-45.12856399 12.44708098 -39.46140101 5.35643331 -30.1484375 0.578125 C-20.52666543 -3.93394824 -9.87716493 -4.13733752 0 0 Z " fill="#397CAC" transform="translate(48.3984375,2.546875)"/>
<path d="M0 0 C3.01399879 4.52099819 3.12108347 7.86032065 3.0625 13.25 C3.05347656 14.32765625 3.04445312 15.4053125 3.03515625 16.515625 C3.02355469 17.33546875 3.01195312 18.1553125 3 19 C2.67 19 2.34 19 2 19 C2 16.69 2 14.38 2 12 C-0.08261145 13.03712176 -0.08261145 13.03712176 -2 15 C-2.81314911 18.60465748 -2.81314911 18.60465748 -3 22 C-3.66 22 -4.32 22 -5 22 C-5.04125 22.556875 -5.0825 23.11375 -5.125 23.6875 C-6.71559642 27.89121911 -10.13467904 30.10293725 -14.046875 31.984375 C-19.72496136 34.11869115 -24.9841421 34.33909846 -31 34 C-31 34.66 -31 35.32 -31 36 C-25.06 36 -19.12 36 -13 36 C-13 36.99 -13 37.98 -13 39 C-16.66351581 40.22117194 -20.06052972 40.18406354 -23.875 40.1875 C-24.58269531 40.19974609 -25.29039063 40.21199219 -26.01953125 40.22460938 C-30.12373433 40.23607363 -33.36428978 39.96075779 -37 38 C-39.3125 35.375 -39.3125 35.375 -41 33 C-38.69 33.66 -36.38 34.32 -34 35 C-32.64381501 33.87465895 -32.64381501 33.87465895 -32.9375 30.9375 C-32.958125 29.968125 -32.97875 28.99875 -33 28 C-32.34 28 -31.68 28 -31 28 C-31 27.34 -31 26.68 -31 26 C-30.34 25.67 -29.68 25.34 -29 25 C-28.38125 23.8553125 -28.38125 23.8553125 -27.75 22.6875 C-25.62205837 19.41958964 -23.27437379 18.0715426 -20 16 C-18.63113049 14.70317626 -17.2830709 13.38176866 -16 12 C-16 12.66 -16 13.32 -16 14 C-14.02 13.67 -12.04 13.34 -10 13 C-9.67 11.02 -9.34 9.04 -9 7 C-6.03 6.34 -3.06 5.68 0 5 C0 3.35 0 1.7 0 0 Z " fill="#05407F" transform="translate(57,26)"/>
<path d="M0 0 C0.061875 0.886875 0.12375 1.77375 0.1875 2.6875 C1.18828063 6.76760565 3.00190942 8.15181395 6 11 C6.625 13.1875 6.625 13.1875 7 15 C7.99 15.66 8.98 16.32 10 17 C8.35 16.67 6.7 16.34 5 16 C5 15.34 5 14.68 5 14 C3.41773035 13.80372609 1.83410729 13.61834462 0.25 13.4375 C-1.07257812 13.28087891 -1.07257812 13.28087891 -2.421875 13.12109375 C-4.90228549 13.00458962 -6.63308489 13.3470579 -9 14 C-11.25 13.5625 -11.25 13.5625 -13 13 C-17.39973696 18.22468764 -17.47617251 22.30713088 -17 29 C-16.34 29 -15.68 29 -15 29 C-13.43920222 32.58721171 -12.52509152 35.958386 -11.875 39.8125 C-11.70742188 40.78832031 -11.53984375 41.76414063 -11.3671875 42.76953125 C-11.24601562 43.50558594 -11.12484375 44.24164063 -11 45 C-12.485 44.505 -12.485 44.505 -14 44 C-14 43.34 -14 42.68 -14 42 C-14.66 42 -15.32 42 -16 42 C-20 35.25 -20 35.25 -20 33 C-20.66 33 -21.32 33 -22 33 C-22.495 31.515 -22.495 31.515 -23 30 C-23.66 29.67 -24.32 29.34 -25 29 C-24.85562749 35.92988052 -21.77744657 39.19760593 -17 44 C-20 44 -20 44 -21.46484375 42.78515625 C-27.65084035 35.54901699 -31.1764541 27.82214453 -31.0625 18.25 C-31.05347656 17.26515625 -31.04445313 16.2803125 -31.03515625 15.265625 C-31.02355469 14.51796875 -31.01195313 13.7703125 -31 13 C-30.67 13 -30.34 13 -30 13 C-29.67 14.98 -29.34 16.96 -29 19 C-27.35 13.72 -25.7 8.44 -24 3 C-23.67 3 -23.34 3 -23 3 C-22.896875 3.763125 -22.79375 4.52625 -22.6875 5.3125 C-21.95635961 8.17059424 -21.23048087 9.15742885 -19 11 C-18.67 10.01 -18.34 9.02 -18 8 C-18.66 7.67 -19.32 7.34 -20 7 C-19.34 5.68 -18.68 4.36 -18 3 C-17.34 3 -16.68 3 -16 3 C-16 4.65 -16 6.3 -16 8 C-15.52949219 7.59007812 -15.05898438 7.18015625 -14.57421875 6.7578125 C-13.95160156 6.21898437 -13.32898438 5.68015625 -12.6875 5.125 C-11.76517578 4.32449219 -11.76517578 4.32449219 -10.82421875 3.5078125 C-6.98950829 0.33822313 -4.91379695 -0.21839098 0 0 Z " fill="#155F9F" transform="translate(33,14)"/>
<path d="M0 0 C2.31 0 4.62 0 7 0 C8.98 3.96 10.96 7.92 13 12 C13.42410156 11.13375 13.84820312 10.2675 14.28515625 9.375 C14.87167969 8.26125 15.45820312 7.1475 16.0625 6 C16.63097656 4.88625 17.19945313 3.7725 17.78515625 2.625 C18.51605469 1.75875 19.24695313 0.8925 20 0 C22.31 0 24.62 0 27 0 C27 8.25 27 16.5 27 25 C24.69 25 22.38 25 20 25 C19.67 22.03 19.34 19.06 19 16 C17.68 18.31 16.36 20.62 15 23 C12.6875 22.875 12.6875 22.875 10 22 C8.1875 18.9375 8.1875 18.9375 7 16 C6.67 18.97 6.34 21.94 6 25 C4.02 25 2.04 25 0 25 C-0.78653402 21.59698245 -1.08116649 18.62008956 -0.87890625 15.13671875 C-0.83056641 14.25048828 -0.78222656 13.36425781 -0.73242188 12.45117188 C-0.67634766 11.53916016 -0.62027344 10.62714844 -0.5625 9.6875 C-0.51029297 8.75615234 -0.45808594 7.82480469 -0.40429688 6.86523438 C-0.2751852 4.57643647 -0.14024585 2.28813814 0 0 Z " fill="#15436E" transform="translate(101,22)"/>
<path d="M0 0 C3.29680965 0.65784963 5.84117922 1.89420573 8.75 3.5625 C9.54921875 4.01753906 10.3484375 4.47257812 11.171875 4.94140625 C11.77515625 5.29074219 12.3784375 5.64007813 13 6 C13 6.66 13 7.32 13 8 C15.31 8.66 17.62 9.32 20 10 C19.52541716 14.27124556 17.08157175 16.20508608 14 19 C12.9171875 19.7734375 12.9171875 19.7734375 11.8125 20.5625 C9.77020545 22.18225085 8.98732498 23.61396464 8 26 C7.34 26 6.68 26 6 26 C6 26.66 6 27.32 6 28 C5.34 28 4.68 28 4 28 C4.33 30.31 4.66 32.62 5 35 C3.24609375 35.66015625 3.24609375 35.66015625 1 36 C-4.22259657 33.33159579 -8.8185542 28.87158888 -12 24 C-12.3125 20.125 -12.3125 20.125 -12 17 C-11.01 17.33 -10.02 17.66 -9 18 C-9 18.99 -9 19.98 -9 21 C-8.34 21 -7.68 21 -7 21 C-3 27.75 -3 27.75 -3 30 C-2.34 30 -1.68 30 -1 30 C-1 30.66 -1 31.32 -1 32 C-0.34 31.67 0.32 31.34 1 31 C0.7834375 30.15695313 0.566875 29.31390625 0.34375 28.4453125 C0.0653125 27.34960938 -0.213125 26.25390625 -0.5 25.125 C-0.7784375 24.03445312 -1.056875 22.94390625 -1.34375 21.8203125 C-2 19 -2 19 -2 17 C-2.66 17 -3.32 17 -4 17 C-5.72107623 8.5309417 -5.72107623 8.5309417 -3.953125 4.77734375 C-2.5625 2.875 -2.5625 2.875 0 0 Z " fill="#798085" transform="translate(20,26)"/>
<path d="M0 0 C0.58984375 1.890625 0.58984375 1.890625 1 4 C-0.4375 5.75 -0.4375 5.75 -2 7 C-2.680625 6.649375 -3.36125 6.29875 -4.0625 5.9375 C-7.7087789 4.77379397 -10.28489978 5.27154898 -14 6 C-14.0270043 7.45823212 -14.04639787 8.91660675 -14.0625 10.375 C-14.07410156 11.18710937 -14.08570312 11.99921875 -14.09765625 12.8359375 C-14.14466334 15.04937142 -14.14466334 15.04937142 -13 17 C-10.67843403 17.40729228 -8.3431213 17.74438677 -6 18 C-6 17.34 -6 16.68 -6 16 C-7.32 15.67 -8.64 15.34 -10 15 C-10 13.02 -10 11.04 -10 9 C-8.37536158 8.94604522 -6.75021459 8.90722805 -5.125 8.875 C-3.76761719 8.84019531 -3.76761719 8.84019531 -2.3828125 8.8046875 C0 9 0 9 2 11 C1.9765625 13.6015625 1.9765625 13.6015625 1.625 16.625 C1.45871094 18.12933594 1.45871094 18.12933594 1.2890625 19.6640625 C1.14597656 20.82035156 1.14597656 20.82035156 1 22 C-4.53629019 24.94483521 -8.88318991 25.85391522 -15 24 C-18.00309566 22.20065041 -20.40743123 20.18513755 -22 17 C-22.41849303 12.4529123 -22.53618367 8.32634907 -20.8125 4.0625 C-14.62797018 -2.97506841 -8.27016296 -2.18015189 0 0 Z " fill="#2277AB" transform="translate(97,23)"/>
<path d="M0 0 C3.4285785 2.02008139 6.20847086 4.41694171 8 8 C8.56266426 12.61200214 8.40400598 16.12734709 6.4375 20.375 C3.10575368 23.96303449 -0.04240257 25.81121719 -5.01953125 26.12890625 C-10.44088404 25.78683236 -13.28461096 23.89231232 -17 20 C-19.07398081 16.32339766 -19.51233197 13.1840444 -19 9 C-14.73950025 0.95238936 -8.89555316 -1.75697551 0 0 Z M-11 8 C-12.33660145 11.35592863 -12.33660145 11.35592863 -12 15 C-10.10350449 18.14658666 -10.10350449 18.14658666 -7 20 C-3.80857748 20.26010343 -3.80857748 20.26010343 -1 19 C1.25731888 16.44824822 0.99511262 14.86070966 0.875 11.4375 C0.30537982 7.97547098 0.30537982 7.97547098 -1.9375 6.0625 C-5.73833611 4.10449352 -7.7871798 5.44621984 -11 8 Z " fill="#296B96" transform="translate(148,22)"/>
<path d="M0 0 C2.31 0 4.62 0 7 0 C7.33 5.94 7.66 11.88 8 18 C9.65 18.33 11.3 18.66 13 19 C14.51421001 17.48578999 14.21309856 16.07527232 14.31640625 13.96484375 C14.35830078 13.15595703 14.40019531 12.34707031 14.44335938 11.51367188 C14.50233398 10.2384668 14.50233398 10.2384668 14.5625 8.9375 C14.60568359 8.08349609 14.64886719 7.22949219 14.69335938 6.34960938 C14.79976702 4.23327963 14.90041731 2.11666187 15 0 C17.31 0 19.62 0 22 0 C22.14584064 3.22868746 22.23424106 6.45652365 22.3125 9.6875 C22.35439453 10.59951172 22.39628906 11.51152344 22.43945312 12.45117188 C22.52295985 17.04404197 22.52746635 19.2749635 19.7578125 23.08203125 C15.82370637 25.8180739 12.73085893 26.29984317 8 26 C3.89786311 24.50831386 2.42931791 23.64397687 0 20 C-0.22705078 17.82348633 -0.22705078 17.82348633 -0.1953125 15.33203125 C-0.18564453 13.99301758 -0.18564453 13.99301758 -0.17578125 12.62695312 C-0.15902344 11.69818359 -0.14226562 10.76941406 -0.125 9.8125 C-0.11597656 8.87212891 -0.10695312 7.93175781 -0.09765625 6.96289062 C-0.07409056 4.64167032 -0.04119116 2.32096356 0 0 Z " fill="#21618E" transform="translate(198,22)"/>
<path d="M0 0 C0.99 0.66 1.98 1.32 3 2 C2.67 3.65 2.34 5.3 2 7 C-1.63 6.67 -5.26 6.34 -9 6 C-9 6.66 -9 7.32 -9 8 C-8.31292969 8.18175781 -7.62585938 8.36351562 -6.91796875 8.55078125 C-6.01691406 8.80214844 -5.11585938 9.05351562 -4.1875 9.3125 C-3.29417969 9.55613281 -2.40085938 9.79976562 -1.48046875 10.05078125 C1.09551521 11.03655149 2.33365182 11.82673684 4 14 C4.5 16.875 4.5 16.875 4 20 C1.50229096 23.51240334 -0.67512037 25.2400996 -4.875 26 C-9.24245248 26.32382252 -12.16433479 24.9977423 -16 23 C-15.67 21.35 -15.34 19.7 -15 18 C-11.21293268 18 -7.73486879 18.4254048 -4 19 C-4 18.34 -4 17.68 -4 17 C-4.69867188 16.73445313 -5.39734375 16.46890625 -6.1171875 16.1953125 C-7.02726563 15.84210937 -7.93734375 15.48890625 -8.875 15.125 C-9.77992188 14.77695312 -10.68484375 14.42890625 -11.6171875 14.0703125 C-14 13 -14 13 -16 11 C-16.52140959 6.97769747 -16.64520699 4.86769216 -14.1875 1.5625 C-9.56280016 -0.70450973 -5.06997754 -0.67495057 0 0 Z " fill="#1A4871" transform="translate(238,22)"/>
<path d="M0 0 C14.19642857 -0.66964286 14.19642857 -0.66964286 17.875 2.0625 C20 5 20 5 20.75 8.5 C19.94752717 12.24487321 18.9043952 13.86621138 15.80078125 16.1328125 C12.86493448 17.54660422 10.17402103 17.3174021 7 17 C7 19.64 7 22.28 7 25 C4.69 25 2.38 25 0 25 C0 16.75 0 8.5 0 0 Z M7 6 C7 7.98 7 9.96 7 12 C8.98 11.67 10.96 11.34 13 11 C12.67 9.35 12.34 7.7 12 6 C10.35 6 8.7 6 7 6 Z " fill="#21517C" transform="translate(158,22)"/>
<path d="M0 0 C1.98 0 3.96 0 6 0 C5.67 0.66 5.34 1.32 5 2 C4.34 2 3.68 2 3 2 C3 3.258125 3 4.51625 3 5.8125 C3 9.20833333 3 12.60416667 3 16 C3.99 16.33 4.98 16.66 6 17 C6 17.66 6 18.32 6 19 C10.01877434 20.33959145 13.79752586 20.6025894 18 20 C20.12355567 18.17728073 20.12355567 18.17728073 21 16 C21.33 18.64 21.66 21.28 22 24 C18.86501708 25.85776765 16.62528568 26.20140476 13 26 C13.020625 26.969375 13.04125 27.93875 13.0625 28.9375 C13 32 13 32 12 33 C10.00041636 33.04080783 7.99954746 33.04254356 6 33 C5.67 31.68 5.34 30.36 5 29 C3.906875 28.731875 2.81375 28.46375 1.6875 28.1875 C-1.74780941 27.08121392 -2.80945847 26.62864984 -5 24 C-5.99 23.34 -6.98 22.68 -8 22 C-7.505 20.515 -7.505 20.515 -7 19 C-5.741875 19.12375 -4.48375 19.2475 -3.1875 19.375 C-2.47980469 19.44460937 -1.77210937 19.51421875 -1.04296875 19.5859375 C1 20 1 20 4 22 C4 20.68 4 19.36 4 18 C3.401875 17.773125 2.80375 17.54625 2.1875 17.3125 C-0.64378087 15.61373148 -1.64722513 13.99034445 -3 11 C-2.8125 9.125 -2.8125 9.125 -2 7 C-1.649375 5.7625 -1.29875 4.525 -0.9375 3.25 C-0.628125 2.1775 -0.31875 1.105 0 0 Z " fill="#115596" transform="translate(35,7)"/>
<path d="M0 0 C0.66 0 1.32 0 2 0 C2 0.66 2 1.32 2 2 C2.7425 2.0825 3.485 2.165 4.25 2.25 C7.61426412 3.16752658 8.87059621 4.26219512 11 7 C11.35015049 8.66321482 11.68197057 10.33034549 12 12 C13.051875 13.485 13.051875 13.485 14.125 15 C16 18 16 18 15.8125 20.8125 C15 23 15 23 14 24 C8.90998634 24.65981659 5.19126351 24.89344763 1 21.75 C-3.07730148 16.14371047 -3.07730148 16.14371047 -2.828125 12.45703125 C-2.54195312 11.14798828 -2.54195312 11.14798828 -2.25 9.8125 C-2.06953125 8.93207031 -1.8890625 8.05164062 -1.703125 7.14453125 C-1.47109375 6.43683594 -1.2390625 5.72914062 -1 5 C-0.34 4.67 0.32 4.34 1 4 C0.67 2.68 0.34 1.36 0 0 Z " fill="#0EB7EE" transform="translate(39,4)"/>
<path d="M0 0 C3 0.125 3 0.125 4 1.125 C4.0999519 3.20635137 4.12967207 5.29125528 4.125 7.375 C4.12757813 8.51453125 4.13015625 9.6540625 4.1328125 10.828125 C4 14.125 4 14.125 3 19.125 C6.63 19.125 10.26 19.125 14 19.125 C14 21.105 14 23.085 14 25.125 C11.18743719 25.15184312 8.37512759 25.17176188 5.5625 25.1875 C4.76005859 25.19587891 3.95761719 25.20425781 3.13085938 25.21289062 C1.08704779 25.2215143 -0.95683902 25.1772815 -3 25.125 C-4.68516954 23.43983046 -4.13008019 21.33732212 -4.1328125 19.03125 C-4.13474609 17.48630859 -4.13474609 17.48630859 -4.13671875 15.91015625 C-4.13285156 14.82605469 -4.12898437 13.74195313 -4.125 12.625 C-4.12886719 11.54089844 -4.13273438 10.45679688 -4.13671875 9.33984375 C-4.13542969 8.30988281 -4.13414062 7.27992187 -4.1328125 6.21875 C-4.13168457 5.26677734 -4.13055664 4.31480469 -4.12939453 3.33398438 C-3.92827881 -0.09940255 -3.50758373 0.14614932 0 0 Z " fill="#307AA1" transform="translate(183,21.875)"/>
<path d="M0 0 C3.29680965 0.65784963 5.84117922 1.89420573 8.75 3.5625 C9.54921875 4.01753906 10.3484375 4.47257812 11.171875 4.94140625 C11.77515625 5.29074219 12.3784375 5.64007813 13 6 C13 6.66 13 7.32 13 8 C15.31 8.66 17.62 9.32 20 10 C19.67 10.66 19.34 11.32 19 12 C12.125 9.25 12.125 9.25 11 7 C7.24864982 4.29902787 3.43128554 4.78206792 -1 5 C-2.34284416 6.13690364 -2.34284416 6.13690364 -2.375 9.125 C-1.94923752 13.52454559 -0.82107485 15.20886192 1.90625 18.51953125 C3 20 3 20 3 22 C5.31 21.34 7.62 20.68 10 20 C9.34 21.98 8.68 23.96 8 26 C7.34 26 6.68 26 6 26 C6 26.66 6 27.32 6 28 C5.34 28 4.68 28 4 28 C4.33 30.31 4.66 32.62 5 35 C3.24609375 35.66015625 3.24609375 35.66015625 1 36 C-4.22259657 33.33159579 -8.8185542 28.87158888 -12 24 C-12.3125 20.125 -12.3125 20.125 -12 17 C-11.01 17.33 -10.02 17.66 -9 18 C-9 18.99 -9 19.98 -9 21 C-8.34 21 -7.68 21 -7 21 C-3 27.75 -3 27.75 -3 30 C-2.34 30 -1.68 30 -1 30 C-1 30.66 -1 31.32 -1 32 C-0.34 31.67 0.32 31.34 1 31 C0.7834375 30.15695313 0.566875 29.31390625 0.34375 28.4453125 C0.0653125 27.34960938 -0.213125 26.25390625 -0.5 25.125 C-0.7784375 24.03445312 -1.056875 22.94390625 -1.34375 21.8203125 C-2 19 -2 19 -2 17 C-2.66 17 -3.32 17 -4 17 C-5.72107623 8.5309417 -5.72107623 8.5309417 -3.953125 4.77734375 C-2.5625 2.875 -2.5625 2.875 0 0 Z " fill="#A6B2BB" transform="translate(20,26)"/>
<path d="M0 0 C2 2 2 2 2 5 C1.34 4.67 0.68 4.34 0 4 C0 3.67 0 3.34 0 3 C-5.61589298 2.70952278 -9.09825932 2.89157908 -14 6 C-14.33 6.66 -14.66 7.32 -15 8 C-14.38125 7.46375 -13.7625 6.9275 -13.125 6.375 C-8.48454315 4.33319899 -4.76041869 5.71514913 0 7 C-0.33 8.98 -0.66 10.96 -1 13 C-2.0725 13.103125 -3.145 13.20625 -4.25 13.3125 C-7.92375834 13.98602236 -9.25157596 14.65874989 -12 17 C-12.66 17 -13.32 17 -14 17 C-14.66 18.32 -15.32 19.64 -16 21 C-16.66 21 -17.32 21 -18 21 C-18 19.35 -18 17.7 -18 16 C-18.45375 16.495 -18.9075 16.99 -19.375 17.5 C-21 19 -21 19 -23 19 C-22.49396008 16.83125748 -22.00016187 15.00032373 -21 13 C-21.99 12.67 -22.98 12.34 -24 12 C-16.81952092 4.37074098 -10.8594378 -0.6033021 0 0 Z " fill="#8C97A0" transform="translate(35,1)"/>
<path d="M0 0 C0.33 0.99 0.66 1.98 1 3 C3.01508358 3.73323796 3.01508358 3.73323796 5 4 C4.34 5.98 3.68 7.96 3 10 C3.66 10.33 4.32 10.66 5 11 C5.625 13.5625 5.625 13.5625 6 16 C5.34 15.67 4.68 15.34 4 15 C4 14.34 4 13.68 4 13 C3.01 12.67 2.02 12.34 1 12 C0.67 11.34 0.34 10.68 0 10 C-1.32 14.95 -2.64 19.9 -4 25 C-4.66 24.34 -5.32 23.68 -6 23 C-5.71452409 31.56427735 -3.08766263 39.59258363 2.84765625 45.9921875 C4.51654603 47.41659024 6.23223435 48.70306782 8 50 C9.01614444 50.98359061 10.02092 51.97950877 11 53 C4.91993603 51.96856058 0.89041206 46.94292351 -3.25 42.6875 C-8.92111653 33.97828533 -10.44396621 25.33238043 -9 15 C-6.99724258 9.33703073 -4.51633226 4.0687678 0 0 Z " fill="#2769A2" transform="translate(9,10)"/>
<path d="M0 0 C6.11247661 1.10024579 10.31624286 5.63911902 13.81640625 10.546875 C19.0769649 19.11588138 19.67288882 25.92909738 19 36 C18.26725516 38.93949966 17.31716862 41.2558987 16 44 C15.34 44 14.68 44 14 44 C13.67 42.02 13.34 40.04 13 38 C13.66 38 14.32 38 15 38 C15.19818283 31.29481414 15.30844801 25.34823202 13 19 C12.278125 18.979375 11.55625 18.95875 10.8125 18.9375 C6.73963305 17.57987768 5.00771141 14.69931507 3 11 C3 10.34 3 9.68 3 9 C5.31 9.66 7.62 10.32 10 11 C10 10.67 10 10.34 10 10 C10 9.34 10 8.68 10 8 C8.68 7.67 7.36 7.34 6 7 C6.33 6.34 6.66 5.68 7 5 C6.01 5.33 5.02 5.66 4 6 C2.62437146 4.71034824 1.29233607 3.37310707 0 2 C0 1.34 0 0.68 0 0 Z " fill="#8CA0B0" transform="translate(48,4)"/>
<path d="M0 0 C0.66 1.32 1.32 2.64 2 4 C1.01 5.485 1.01 5.485 0 7 C-0.24150773 9.51584891 -0.24150773 9.51584891 -0.125 12.1875 C-0.09792969 13.53908203 -0.09792969 13.53908203 -0.0703125 14.91796875 C-0.04710937 15.60503906 -0.02390625 16.29210937 0 17 C0.66 17 1.32 17 2 17 C3.56079778 20.58721171 4.47490848 23.958386 5.125 27.8125 C5.37636719 29.27623047 5.37636719 29.27623047 5.6328125 30.76953125 C5.81457031 31.87361328 5.81457031 31.87361328 6 33 C5.01 32.67 4.02 32.34 3 32 C3 31.34 3 30.68 3 30 C2.34 30 1.68 30 1 30 C-3 23.25 -3 23.25 -3 21 C-3.66 21 -4.32 21 -5 21 C-5.33 18.69 -5.66 16.38 -6 14 C-6.99 13.67 -7.98 13.34 -9 13 C-9.125 6.25 -9.125 6.25 -8 4 C-6.33333333 3.66666667 -4.66666667 3.33333333 -3 3 C-2.67 2.34 -2.34 1.68 -2 1 C-1.67 1.33 -1.34 1.66 -1 2 C-0.67 1.34 -0.34 0.68 0 0 Z " fill="#064E91" transform="translate(16,26)"/>
<path d="M0 0 C0 0.33 0 0.66 0 1 C-0.56847656 1.00257812 -1.13695312 1.00515625 -1.72265625 1.0078125 C-7.42358322 1.29333472 -10.4948115 2.56697912 -14.6875 6.4296875 C-16.23013526 8.08079844 -16.23013526 8.08079844 -17 11 C-16.01 11 -15.02 11 -14 11 C-13.67 10.01 -13.34 9.02 -13 8 C-12.34 10.97 -11.68 13.94 -11 17 C-12.32 17.33 -13.64 17.66 -15 18 C-14.12355567 20.17728073 -14.12355567 20.17728073 -12 22 C-6.34689219 23.05302989 -1.89746918 22.01382719 3 19 C3 16.69 3 14.38 3 12 C4.32 12 5.64 12 7 12 C7.33 10.68 7.66 9.36 8 8 C8.37170491 12.64631139 8.42492292 16.0821665 6.4375 20.375 C3.10575368 23.96303449 -0.04240257 25.81121719 -5.01953125 26.12890625 C-10.44088404 25.78683236 -13.28461096 23.89231232 -17 20 C-19.07398081 16.32339766 -19.51233197 13.1840444 -19 9 C-14.35562783 0.22729701 -9.22156514 -0.4834607 0 0 Z " fill="#14406D" transform="translate(148,22)"/>
<path d="M0 0 C0.061875 0.886875 0.12375 1.77375 0.1875 2.6875 C1.18828063 6.76760565 3.00190942 8.15181395 6 11 C6.625 13.1875 6.625 13.1875 7 15 C7.99 15.66 8.98 16.32 10 17 C8.35 16.67 6.7 16.34 5 16 C5 15.34 5 14.68 5 14 C3.41773035 13.80372609 1.83410729 13.61834462 0.25 13.4375 C-0.63171875 13.33308594 -1.5134375 13.22867187 -2.421875 13.12109375 C-4.88432451 13.00543324 -6.66538064 13.26361305 -9 14 C-9.33 13.01 -9.66 12.02 -10 11 C-10.99 11 -11.98 11 -13 11 C-12.875 7.75 -12.875 7.75 -12 4 C-8.07510408 0.44021068 -5.24945505 -0.4999481 0 0 Z " fill="#06488D" transform="translate(33,14)"/>
<path d="M0 0 C0.7425 0.804375 1.485 1.60875 2.25 2.4375 C4.64617357 5.13630319 4.64617357 5.13630319 7.125 5.375 C9 6 9 6 10.75 8.8125 C12.7037847 13.9478576 12.60808513 19.59830868 12 25 C11.34 25.99 10.68 26.98 10 28 C10.21527344 28.77730469 10.43054687 29.55460937 10.65234375 30.35546875 C11 33 11 33 9.12890625 35.67578125 C8.28199219 36.54589844 7.43507813 37.41601562 6.5625 38.3125 C5.71816406 39.19550781 4.87382813 40.07851563 4.00390625 40.98828125 C3.34261719 41.65214844 2.68132813 42.31601562 2 43 C1.34 42.67 0.68 42.34 0 42 C0.75796875 41.16855469 0.75796875 41.16855469 1.53125 40.3203125 C2.1809375 39.59585938 2.830625 38.87140625 3.5 38.125 C4.1496875 37.40570313 4.799375 36.68640625 5.46875 35.9453125 C7.20617272 34.15068902 7.20617272 34.15068902 7 32 C6.34 32.66 5.68 33.32 5 34 C5.33 31.36 5.66 28.72 6 26 C6.33 26 6.66 26 7 26 C7.10477512 20.21408489 6.99250545 14.70690634 6 9 C5.34 9 4.68 9 4 9 C0 2.25 0 2.25 0 0 Z " fill="#064386" transform="translate(52,17)"/>
<path d="M0 0 C1.98 0 3.96 0 6 0 C5.67 0.66 5.34 1.32 5 2 C4.34 2 3.68 2 3 2 C3 3.258125 3 4.51625 3 5.8125 C3 9.20833333 3 12.60416667 3 16 C3.99 16.33 4.98 16.66 6 17 C6 17.66 6 18.32 6 19 C10.01877434 20.33959145 13.79752586 20.6025894 18 20 C20.12355567 18.17728073 20.12355567 18.17728073 21 16 C21.33 18.31 21.66 20.62 22 23 C16.76655404 24.74448199 11.12042565 24.67853621 5.875 23 C5.25625 22.67 4.6375 22.34 4 22 C4 20.68 4 19.36 4 18 C3.401875 17.773125 2.80375 17.54625 2.1875 17.3125 C-0.64378087 15.61373148 -1.64722513 13.99034445 -3 11 C-2.8125 9.125 -2.8125 9.125 -2 7 C-1.649375 5.7625 -1.29875 4.525 -0.9375 3.25 C-0.4734375 1.64125 -0.4734375 1.64125 0 0 Z " fill="#1090D6" transform="translate(35,7)"/>
<path d="M0 0 C0.33773437 0.71027344 0.67546875 1.42054687 1.0234375 2.15234375 C1.46945313 3.07144531 1.91546875 3.99054687 2.375 4.9375 C2.81585938 5.85402344 3.25671875 6.77054688 3.7109375 7.71484375 C4.79199162 10.12903802 4.79199162 10.12903802 7 11 C7.268125 10.29875 7.53625 9.5975 7.8125 8.875 C9.0681449 5.8350176 10.50235123 2.9272226 12 0 C13.65 0 15.3 0 17 0 C17 2.97 17 5.94 17 9 C16.01 9 15.02 9 14 9 C13.67 8.01 13.34 7.02 13 6 C12.27683594 6.97453125 12.27683594 6.97453125 11.5390625 7.96875 C10.90742187 8.8040625 10.27578125 9.639375 9.625 10.5 C8.99851562 11.3353125 8.37203125 12.170625 7.7265625 13.03125 C7.15679687 13.6809375 6.58703125 14.330625 6 15 C5.34 15 4.68 15 4 15 C3.9175 14.38125 3.835 13.7625 3.75 13.125 C3.21189267 10.81653196 3.21189267 10.81653196 1 10 C-1 9 -1 9 -1.75 6.875 C-1.87375 5.946875 -1.87375 5.946875 -2 5 C-2.66 5 -3.32 5 -4 5 C-4 6.32 -4 7.64 -4 9 C-4.66 9 -5.32 9 -6 9 C-6 6.36 -6 3.72 -6 1 C-3 0 -3 0 0 0 Z " fill="#65B0C6" transform="translate(109,24)"/>
<path d="M0 0 C1.08667969 0.02707031 2.17335937 0.05414062 3.29296875 0.08203125 C4.54013672 0.13423828 4.54013672 0.13423828 5.8125 0.1875 C6.9375 3.9375 6.9375 3.9375 5.8125 6.1875 C2.1825 5.8575 -1.4475 5.5275 -5.1875 5.1875 C-5.1875 5.8475 -5.1875 6.5075 -5.1875 7.1875 C-1.8875 8.1775 1.4125 9.1675 4.8125 10.1875 C4.8125 10.8475 4.8125 11.5075 4.8125 12.1875 C3.06158981 12.09995449 1.31170449 11.99176627 -0.4375 11.875 C-1.41203125 11.81699219 -2.3865625 11.75898437 -3.390625 11.69921875 C-6.44091611 11.14113476 -7.89461276 10.22380224 -10.1875 8.1875 C-9.84035529 5.61862916 -9.52927261 3.67706618 -8.03125 1.53125 C-5.35122361 -0.42198958 -3.26932023 -0.10546194 0 0 Z " fill="#49B9D2" transform="translate(234.1875,22.8125)"/>
<path d="M0 0 C0.33 1.32 0.66 2.64 1 4 C-6.2313827 7.86794889 -11.94747331 8.14072377 -20 8 C-20 8.66 -20 9.32 -20 10 C-14.06 10 -8.12 10 -2 10 C-2 10.99 -2 11.98 -2 13 C-5.66351581 14.22117194 -9.06052972 14.18406354 -12.875 14.1875 C-13.58269531 14.19974609 -14.29039063 14.21199219 -15.01953125 14.22460938 C-19.12373433 14.23607363 -22.36428978 13.96075779 -26 12 C-28.3125 9.375 -28.3125 9.375 -30 7 C-28.329375 7.495 -28.329375 7.495 -26.625 8 C-23.30540283 9.088643 -23.30540283 9.088643 -21 9 C-21 7.35 -21 5.7 -21 4 C-20.34 4 -19.68 4 -19 4 C-19 4.66 -19 5.32 -19 6 C-16.93673023 5.91239411 -14.8743284 5.80420727 -12.8125 5.6875 C-11.66394531 5.62949219 -10.51539062 5.57148437 -9.33203125 5.51171875 C-5.82000728 4.97235751 -3.83700902 4.1005277 -1 2 C-0.67 1.34 -0.34 0.68 0 0 Z " fill="#06498B" transform="translate(46,52)"/>
<path d="M0 0 C2.31 0 4.62 0 7 0 C7 5.94 7 11.88 7 18 C6.67 18 6.34 18 6 18 C6 12.39 6 6.78 6 1 C4.68 1 3.36 1 2 1 C2 4.3 2 7.6 2 11 C2.99 11 3.98 11 5 11 C5 13.31 5 15.62 5 18 C4.34 18 3.68 18 3 18 C3.33 19.32 3.66 20.64 4 22 C8.72314313 22.77112541 13.21521178 23.09764874 18 23 C17.67 23.66 17.34 24.32 17 25 C12.56404283 26.24206801 8.88836162 26.32304059 4.5625 24.75 C2 23 2 23 0 20 C-0.22705078 17.82348633 -0.22705078 17.82348633 -0.1953125 15.33203125 C-0.18564453 13.99301758 -0.18564453 13.99301758 -0.17578125 12.62695312 C-0.15902344 11.69818359 -0.14226562 10.76941406 -0.125 9.8125 C-0.11597656 8.87212891 -0.10695312 7.93175781 -0.09765625 6.96289062 C-0.07409056 4.64167032 -0.04119116 2.32096356 0 0 Z " fill="#23507E" transform="translate(198,22)"/>
<path d="M0 0 C6.34507042 0.59859155 6.34507042 0.59859155 8.9375 2.1875 C10.47273259 4.80642619 10.1980568 7.02914805 10 10 C8.68 10 7.36 10 6 10 C6.33 12.31 6.66 14.62 7 17 C3.21541861 20.00156455 0.32916956 21.15341661 -4.5 21.25 C-5.2734375 21.27578125 -6.046875 21.3015625 -6.84375 21.328125 C-9.51815386 20.9211505 -10.38587777 20.1314691 -12 18 C-12 17.34 -12 16.68 -12 16 C-11.34 16 -10.68 16 -10 16 C-9.67 15.34 -9.34 14.68 -9 14 C-6.5 15.375 -6.5 15.375 -4 17 C-4 17.66 -4 18.32 -4 19 C-1.64828869 18.40138258 0.6859378 17.73075648 3 17 C4.96132202 13.07735595 4.48640203 8.27654774 4 4 C2.22876774 1.29898394 2.22876774 1.29898394 0 0 Z " fill="#57B5D8" transform="translate(145,24)"/>
<path d="M0 0 C2.31 0 4.62 0 7 0 C7 7.92 7 15.84 7 24 C5.02 24 3.04 24 1 24 C1 22.35 1 20.7 1 19 C1.99 18.67 2.98 18.34 4 18 C4.33 12.72 4.66 7.44 5 2 C3.35 2 1.7 2 0 2 C-0.0825 2.515625 -0.165 3.03125 -0.25 3.5625 C-1.32140225 7.04455732 -3.13523605 9.87200885 -5 13 C-6 10 -6 10 -5.03125 7.51953125 C-4.5259375 6.62621094 -4.020625 5.73289062 -3.5 4.8125 C-3.0153125 3.91144531 -2.530625 3.01039062 -2.03125 2.08203125 C-1.3609375 1.39496094 -0.690625 0.70789063 0 0 Z " fill="#205581" transform="translate(121,22)"/>
<path d="M0 0 C1.2065625 0.0309375 1.2065625 0.0309375 2.4375 0.0625 C1.4475 0.7225 0.4575 1.3825 -0.5625 2.0625 C-1.06952517 4.18356795 -1.06952517 4.18356795 -1.07421875 6.6328125 C-1.10966797 7.52871094 -1.14511719 8.42460937 -1.18164062 9.34765625 C-1.20419922 10.28480469 -1.22675781 11.22195312 -1.25 12.1875 C-1.28416016 13.13238281 -1.31832031 14.07726563 -1.35351562 15.05078125 C-1.43613039 17.38759883 -1.50098768 19.72503175 -1.5625 22.0625 C3.3875 22.0625 8.3375 22.0625 13.4375 22.0625 C13.7675 21.4025 14.0975 20.7425 14.4375 20.0625 C14.4375 21.7125 14.4375 23.3625 14.4375 25.0625 C11.62493719 25.08934312 8.81262759 25.10926188 6 25.125 C5.19755859 25.13337891 4.39511719 25.14175781 3.56835938 25.15039062 C1.52454779 25.1590143 -0.51933902 25.1147815 -2.5625 25.0625 C-4.24766954 23.37733046 -3.69258019 21.27482212 -3.6953125 18.96875 C-3.69724609 17.42380859 -3.69724609 17.42380859 -3.69921875 15.84765625 C-3.69535156 14.76355469 -3.69148437 13.67945313 -3.6875 12.5625 C-3.69136719 11.47839844 -3.69523438 10.39429688 -3.69921875 9.27734375 C-3.69792969 8.24738281 -3.69664062 7.21742187 -3.6953125 6.15625 C-3.69418457 5.20427734 -3.69305664 4.25230469 -3.69189453 3.27148438 C-3.50436237 0.0699919 -3.22929601 0.07876332 0 0 Z " fill="#13416C" transform="translate(182.5625,21.9375)"/>
<path d="M0 0 C0 0.33 0 0.66 0 1 C-0.58007812 1.02578125 -1.16015625 1.0515625 -1.7578125 1.078125 C-7.22763381 1.47527374 -10.65190088 2.39425927 -15 6 C-17.4783361 9.71750415 -17.63675444 12.69352919 -17 17 C-15.83333333 20.16666667 -15.83333333 20.16666667 -13 22 C-7.99403056 22.72599219 -2.88449789 22.30253277 2 21 C2 19.02 2 17.04 2 15 C2.33 15 2.66 15 3 15 C3.33 17.64 3.66 20.28 4 23 C-1.53629019 25.94483521 -5.88318991 26.85391522 -12 25 C-15.00309566 23.20065041 -17.40743123 21.18513755 -19 18 C-19.41849303 13.4529123 -19.53618367 9.32634907 -17.8125 5.0625 C-12.73077479 -0.72015282 -7.25660521 -1.51882435 0 0 Z " fill="#0F3A63" transform="translate(94,22)"/>
<path d="M0 0 C2.75 -0.3125 2.75 -0.3125 6 0 C8.4375 2.25 8.4375 2.25 10 5 C10 7.1875 10 7.1875 9 9 C6.04454879 11.11103658 3.56144099 11.19785783 0 11 C-1.49821059 7.62902617 -2 5.79557881 -2 2 C-1.34 2 -0.68 2 0 2 C0 1.34 0 0.68 0 0 Z " fill="#50F0FB" transform="translate(43,14)"/>
<path d="M0 0 C0 0.33 0 0.66 0 1 C-1.03060547 1.05607422 -1.03060547 1.05607422 -2.08203125 1.11328125 C-2.98308594 1.17902344 -3.88414062 1.24476562 -4.8125 1.3125 C-5.70582031 1.37050781 -6.59914062 1.42851562 -7.51953125 1.48828125 C-10.01410464 1.84526198 -10.01410464 1.84526198 -11.88671875 3.23046875 C-13.20535626 5.00681804 -13.20535626 5.00681804 -13.12890625 7.51171875 C-12.16386871 10.33252232 -12.16386871 10.33252232 -8.83984375 11.58203125 C-7.5459218 12.01333857 -6.24455843 12.42281005 -4.9375 12.8125 C-4.27427734 13.02841797 -3.61105469 13.24433594 -2.92773438 13.46679688 C-1.29111532 13.99663758 0.35377006 14.5008206 2 15 C1.67 15.99 1.34 16.98 1 18 C0.01 17.34 -0.98 16.68 -2 16 C-2.33 17.65 -2.66 19.3 -3 21 C-3.99 20.67 -4.98 20.34 -6 20 C-5.34 19.67 -4.68 19.34 -4 19 C-4 18.34 -4 17.68 -4 17 C-4.69867188 16.73445313 -5.39734375 16.46890625 -6.1171875 16.1953125 C-7.02726563 15.84210937 -7.93734375 15.48890625 -8.875 15.125 C-9.77992188 14.77695312 -10.68484375 14.42890625 -11.6171875 14.0703125 C-14 13 -14 13 -16 11 C-16.52140959 6.97769747 -16.64520699 4.86769216 -14.1875 1.5625 C-9.50676177 -0.73197952 -5.12149648 -0.32289645 0 0 Z " fill="#17436B" transform="translate(238,22)"/>
<path d="M0 0 C0.99 0.33 1.98 0.66 3 1 C3 1.99 3 2.98 3 4 C3.66 4 4.32 4 5 4 C9 10.75 9 10.75 9 13 C9.66 13 10.32 13 11 13 C11 13.66 11 14.32 11 15 C11.99 15 12.98 15 14 15 C14.66 14.01 15.32 13.02 16 12 C16.33 13.98 16.66 15.96 17 18 C15.24609375 18.66015625 15.24609375 18.66015625 13 19 C7.77740343 16.33159579 3.1814458 11.87158888 0 7 C-0.3125 3.125 -0.3125 3.125 0 0 Z " fill="#4C83AF" transform="translate(8,43)"/>
<path d="M0 0 C0.75 1.63671875 0.75 1.63671875 1 4 C-0.625 6.83203125 -0.625 6.83203125 -3 9.8125 C-3.763125 10.80894531 -4.52625 11.80539063 -5.3125 12.83203125 C-8 15 -8 15 -11.8125 14.82421875 C-12.864375 14.55222656 -13.91625 14.28023437 -15 14 C-13.87678175 10.85498889 -12.92133603 9.94811525 -10.0625 8.0625 C-6.91832237 5.94499261 -5.67117315 4.3423463 -4 1 C-3.01 1.33 -2.02 1.66 -1 2 C-0.67 1.34 -0.34 0.68 0 0 Z " fill="#1B6CA8" transform="translate(59,47)"/>
<path d="M0 0 C1.62463842 -0.05395478 3.24978541 -0.09277195 4.875 -0.125 C6.23238281 -0.15980469 6.23238281 -0.15980469 7.6171875 -0.1953125 C10 0 10 0 12 2 C11.9765625 4.1640625 11.9765625 4.1640625 11.625 6.625 C11.45871094 7.85089844 11.45871094 7.85089844 11.2890625 9.1015625 C11.14597656 10.04128906 11.14597656 10.04128906 11 11 C10.67 11 10.34 11 10 11 C10 9.02 10 7.04 10 5 C9.01 5 8.02 5 7 5 C6.34 6.98 5.68 8.96 5 11 C2.125 11.125 2.125 11.125 -1 11 C-1.66 10.34 -2.32 9.68 -3 9 C-0.69 9 1.62 9 4 9 C4 8.34 4 7.68 4 7 C2.68 6.67 1.36 6.34 0 6 C0 4.02 0 2.04 0 0 Z " fill="#21466B" transform="translate(87,32)"/>
<path d="M0 0 C1.74216797 0.05414062 1.74216797 0.05414062 3.51953125 0.109375 C4.39996094 0.15578125 5.28039062 0.2021875 6.1875 0.25 C5.5275 1.9 4.8675 3.55 4.1875 5.25 C3.58421875 5.09402344 2.9809375 4.93804688 2.359375 4.77734375 C1.56015625 4.58269531 0.7609375 4.38804688 -0.0625 4.1875 C-1.24585937 3.89166016 -1.24585937 3.89166016 -2.453125 3.58984375 C-5.10723919 3.0556729 -5.10723919 3.0556729 -8.8125 4.25 C-8.8125 7.88 -8.8125 11.51 -8.8125 15.25 C-10.7925 14.59 -12.7725 13.93 -14.8125 13.25 C-14.8125 11.93 -14.8125 10.61 -14.8125 9.25 C-14.1525 9.25 -13.4925 9.25 -12.8125 9.25 C-12.7196875 8.13625 -12.7196875 8.13625 -12.625 7 C-10.75534505 0.6719371 -5.99762835 -0.24232842 0 0 Z " fill="#10355D" transform="translate(91.8125,24.75)"/>
<path d="M0 0 C0 0.33 0 0.66 0 1 C-0.56847656 1.00257812 -1.13695312 1.00515625 -1.72265625 1.0078125 C-7.42358322 1.29333472 -10.4948115 2.56697912 -14.6875 6.4296875 C-16.23013526 8.08079844 -16.23013526 8.08079844 -17 11 C-16.01 11 -15.02 11 -14 11 C-13.67 10.01 -13.34 9.02 -13 8 C-12.34 10.97 -11.68 13.94 -11 17 C-13.375 18.0625 -13.375 18.0625 -16 19 C-16.66 18.67 -17.32 18.34 -18 18 C-19.36846221 13.42239754 -19.45237933 9.93955707 -17.375 5.625 C-11.99621729 -0.31997036 -7.67764534 -0.40251733 0 0 Z " fill="#1E699A" transform="translate(148,22)"/>
<path d="M0 0 C0.061875 0.86625 0.12375 1.7325 0.1875 2.625 C1.23122656 6.96047956 2.99278171 8.76145723 6 12 C1.70946867 11.51243962 -0.69594818 10.75337652 -4 8 C-5.32567199 7.31822584 -6.65753688 6.64808564 -8 6 C-8.33 5.67 -8.66 5.34 -9 5 C-10.98 5.99 -10.98 5.99 -13 7 C-10.98878175 0.96634524 -5.94803321 -0.56647935 0 0 Z " fill="#0B4484" transform="translate(33,14)"/>
<path d="M0 0 C2.64 0 5.28 0 8 0 C8 0.66 8 1.32 8 2 C8.66 2 9.32 2 10 2 C10.33 3.98 10.66 5.96 11 8 C8.03 8 5.06 8 2 8 C2 7.34 2 6.68 2 6 C1.34 6 0.68 6 0 6 C0 4.02 0 2.04 0 0 Z " fill="#5B6269" transform="translate(19,34)"/>
<path d="M0 0 C1.37562854 1.28965176 2.70766393 2.62689293 4 4 C4 4.66 4 5.32 4 6 C6.31 5.34 8.62 4.68 11 4 C10.34 5.98 9.68 7.96 9 10 C8.34 10 7.68 10 7 10 C7 10.66 7 11.32 7 12 C6.01 12.495 6.01 12.495 5 13 C4.01 14.485 4.01 14.485 3 16 C0.9346915 12.90203725 0.4516727 11.04666313 -0.1875 7.4375 C-0.36667969 6.46683594 -0.54585937 5.49617188 -0.73046875 4.49609375 C-1 2 -1 2 0 0 Z " fill="#90989E" transform="translate(19,42)"/>
<path d="M0 0 C0.33 1.32 0.66 2.64 1 4 C1.66 4 2.32 4 3 4 C3 6.31 3 8.62 3 11 C2.01 11.495 2.01 11.495 1 12 C0.34444881 14.52733235 0.34444881 14.52733235 0 17 C1.98 17 3.96 17 6 17 C6 17.33 6 17.66 6 18 C3.69 18 1.38 18 -1 18 C-1.33 15.03 -1.66 12.06 -2 9 C-2.66 9.66 -3.32 10.32 -4 11 C-4.99 11 -5.98 11 -7 11 C-5.5140084 6.40693504 -3.14985318 3.56430755 0 0 Z " fill="#0B325B" transform="translate(122,29)"/>
<path d="M0 0 C0.66 0 1.32 0 2 0 C2.66 2.64 3.32 5.28 4 8 C8.55737263 7.56179109 11.57653445 7.14958831 15 4 C15.625 6.875 15.625 6.875 16 10 C13.51923136 12.48076864 12.55781791 12.35091557 9.125 12.4375 C5.42959247 12.35205705 4.36046961 12.28322612 1.375 9.9375 C-0.27624851 6.40983272 -0.30207788 3.85149295 0 0 Z " fill="#1FCEEC" transform="translate(39,16)"/>
<path d="M0 0 C2.43816585 -0.0809723 4.87364384 -0.14046972 7.3125 -0.1875 C8.34793945 -0.22520508 8.34793945 -0.22520508 9.40429688 -0.26367188 C14.55674183 -0.33834499 14.55674183 -0.33834499 16.98046875 1.51171875 C17.31691406 2.00285156 17.65335938 2.49398438 18 3 C17.34 4.65 16.68 6.3 16 8 C15.01 8 14.02 8 13 8 C12.67 6.35 12.34 4.7 12 3 C7.545 2.01 7.545 2.01 3 1 C3 3.64 3 6.28 3 9 C2.01 9 1.02 9 0 9 C0 6.03 0 3.06 0 0 Z " fill="#3BBCD5" transform="translate(160,24)"/>
<path d="M0 0 C3.83024395 0.04133357 6.21118117 0.7809597 9.25 3.25 C9.25 3.91 9.25 4.57 9.25 5.25 C11.56 5.91 13.87 6.57 16.25 7.25 C16.25 10.76716303 15.42554415 11.62121748 13.25 14.25 C12.26 13.92 11.27 13.59 10.25 13.25 C11.24 12.92 12.23 12.59 13.25 12.25 C13.25 11.26 13.25 10.27 13.25 9.25 C12.734375 9.0025 12.21875 8.755 11.6875 8.5 C9.25 7.25 9.25 7.25 5.875 5.125 C2.56232036 3.21575668 0.11464839 2.71074674 -3.75 3.25 C-4.41 3.91 -5.07 4.57 -5.75 5.25 C-4.63427948 0.30895197 -4.63427948 0.30895197 0 0 Z " fill="#888F94" transform="translate(22.75,29.75)"/>
<path d="M0 0 C1.24523437 0.01804688 2.49046875 0.03609375 3.7734375 0.0546875 C5.18496094 0.08949219 5.18496094 0.08949219 6.625 0.125 C3.17542371 2.09179628 0.71495646 2.25398331 -3.27734375 2 C-8.95697635 2.3384511 -12.92107236 5.85398068 -17.1875 9.25 C-17.78498047 9.71792969 -18.38246094 10.18585937 -18.99804688 10.66796875 C-20.46116792 11.81505565 -21.91866297 12.96931234 -23.375 14.125 C-23.705 13.465 -24.035 12.805 -24.375 12.125 C-22.27343928 6.94115021 -18.1953916 4.53097479 -13.375 2.125 C-8.76949923 0.25582186 -4.95516581 -0.09349369 0 0 Z " fill="#366C9B" transform="translate(33.375,-0.125)"/>
<path d="M0 0 C1.32 0 2.64 0 4 0 C4 5.61 4 11.22 4 17 C4.99 17.33 5.98 17.66 7 18 C7 18.66 7 19.32 7 20 C8.65 20 10.3 20 12 20 C12 20.33 12 20.66 12 21 C8.625 21.1875 8.625 21.1875 5 21 C2.32072659 16.98108988 2.84398752 14.75838077 3 10 C2.01 10 1.02 10 0 10 C0 6.7 0 3.4 0 0 Z " fill="#549EC0" transform="translate(200,23)"/>
<path d="M0 0 C1.65 0 3.3 0 5 0 C5 2.97 5 5.94 5 9 C4.01 9 3.02 9 2 9 C1.67 8.01 1.34 7.02 1 6 C-0.98 8.64 -2.96 11.28 -5 14 C-5.66 13.67 -6.32 13.34 -7 13 C-7 12.34 -7 11.68 -7 11 C-6.34 11 -5.68 11 -5 11 C-4.731875 10.29875 -4.46375 9.5975 -4.1875 8.875 C-2.9318551 5.8350176 -1.49764877 2.9272226 0 0 Z " fill="#25A7CC" transform="translate(121,24)"/>
<path d="M0 0 C0.66 0.33 1.32 0.66 2 1 C2.08078641 3.12438339 2.13909141 5.2496323 2.1875 7.375 C2.22230469 8.55835938 2.25710937 9.74171875 2.29296875 10.9609375 C2.19628906 11.96382812 2.09960938 12.96671875 2 14 C1.01 14.66 0.02 15.32 -1 16 C-1 14.35 -1 12.7 -1 11 C-1.66 11 -2.32 11 -3 11 C-3 7.7 -3 4.4 -3 1 C-2.01 0.67 -1.02 0.34 0 0 Z " fill="#377EA5" transform="translate(185,22)"/>
<path d="M0 0 C0.33 0 0.66 0 1 0 C1.375 2.1875 1.375 2.1875 1 5 C-2.42956453 8.76415619 -3.74472041 9.89876778 -8.875 10.3125 C-9.90625 10.209375 -10.9375 10.10625 -12 10 C-12 12.64 -12 15.28 -12 18 C-14.31 18 -16.62 18 -19 18 C-19 17.67 -19 17.34 -19 17 C-17.02 17 -15.04 17 -13 17 C-13 14.03 -13 11.06 -13 8 C-10.94921875 7.57682292 -8.8984375 7.15364583 -6.84765625 6.73046875 C-6.23792969 6.48941406 -5.62820312 6.24835937 -5 6 C-4.67 5.01 -4.34 4.02 -4 3 C-3.01 2.67 -2.02 2.34 -1 2 C-0.67 1.34 -0.34 0.68 0 0 Z " fill="#0F355B" transform="translate(177,29)"/>
<path d="M0 0 C0 0.66 0 1.32 0 2 C-3.69945999 3.23315333 -7.14767558 3.18407267 -11 3.1875 C-11.72445312 3.19974609 -12.44890625 3.21199219 -13.1953125 3.22460938 C-17.00700298 3.23515833 -18.7536304 3.1642464 -22 1 C-18.36420012 -0.07256097 -14.77201332 -0.34529562 -11 -0.625 C-9.1746875 -0.76808594 -9.1746875 -0.76808594 -7.3125 -0.9140625 C-4.54440426 -0.9858763 -2.59289983 -0.86862144 0 0 Z " fill="#082856" transform="translate(44,63)"/>
<path d="M0 0 C2 3 2 3 2 7 C-3.23344596 8.74448199 -8.87957435 8.67853621 -14.125 7 C-14.74375 6.67 -15.3625 6.34 -16 6 C-16 5.34 -16 4.68 -16 4 C-11.38 4 -6.76 4 -2 4 C-1.34 2.68 -0.68 1.36 0 0 Z " fill="#0975BF" transform="translate(55,23)"/>
<path d="M0 0 C0.66 0.33 1.32 0.66 2 1 C1.2884375 1.6496875 1.2884375 1.6496875 0.5625 2.3125 C-1.23686957 4.02309613 -1.23686957 4.02309613 -2 7 C-1.21625 7.28875 -0.4325 7.5775 0.375 7.875 C3 9 3 9 5 11 C3.625 13 3.625 13 2 15 C1.34 15 0.68 15 0 15 C0 13.35 0 11.7 0 10 C-0.45375 10.495 -0.9075 10.99 -1.375 11.5 C-3 13 -3 13 -5 13 C-4.49396008 10.83125748 -4.00016187 9.00032373 -3 7 C-3.99 6.67 -4.98 6.34 -6 6 C-4 4 -2 2 0 0 Z " fill="#BCC5CC" transform="translate(17,7)"/>
<path d="M0 0 C0.33 0 0.66 0 1 0 C1.13277344 0.69867187 1.26554688 1.39734375 1.40234375 2.1171875 C1.57894531 3.02726562 1.75554688 3.93734375 1.9375 4.875 C2.11152344 5.77992187 2.28554687 6.68484375 2.46484375 7.6171875 C2.89963701 9.99956317 2.89963701 9.99956317 4 12 C4.103125 12.86625 4.20625 13.7325 4.3125 14.625 C5.73226632 21.59476194 9.30418008 26.78242231 14 32 C7.43408561 29.15571381 4.2202293 23.11115267 1.625 16.6875 C-0.27581456 11.07931159 -0.40850188 5.86654095 0 0 Z " fill="#0A3471" transform="translate(2,27)"/>
<path d="M0 0 C1.09570312 0.00902344 2.19140625 0.01804687 3.3203125 0.02734375 C4.16335937 0.03894531 5.00640625 0.05054687 5.875 0.0625 C5.875 1.0525 5.875 2.0425 5.875 3.0625 C5.06675781 3.00449219 4.25851563 2.94648438 3.42578125 2.88671875 C-3.38484971 2.45597188 -3.38484971 2.45597188 -9.3125 5.375 C-11.2488475 7.98692127 -11.2488475 7.98692127 -12.125 11.0625 C-12.785 11.0625 -13.445 11.0625 -14.125 11.0625 C-14.5 8.875 -14.5 8.875 -14.125 6.0625 C-9.21138317 1.36251869 -6.66619147 -0.07091693 0 0 Z " fill="#3A95BC" transform="translate(91.125,22.9375)"/>
<path d="M0 0 C5.29257266 6.44313194 4.53623509 13.97434818 4 22 C3.26725516 24.93949966 2.31716862 27.2558987 1 30 C0 27 0 27 0.9375 24.3125 C3.60772099 15.98769339 1.20921361 9.79380449 -2 2 C-1.34 2 -0.68 2 0 2 C0 1.34 0 0.68 0 0 Z " fill="#617387" transform="translate(63,18)"/>
<path d="M0 0 C2.39208721 2.39208721 3.28965235 4.67090544 4.6875 7.75 C7.38195509 13.26438726 10.12771348 16.42541691 15 20 C16.01614444 20.98359061 17.02092 21.97950877 18 23 C11.84878819 21.95649085 7.60153869 16.81226746 3.625 12.3125 C0.5610802 7.95230644 -0.24621657 5.4167645 0 0 Z " fill="#4778A3" transform="translate(2,40)"/>
<path d="M0 0 C2.58399406 2.58399406 2.3268593 3.78370365 2.375 7.375 C2.30393919 10.98962642 2.25892843 12.5876325 0.3125 15.6875 C-2.36327844 17.20618506 -3.97014627 17.33665041 -7 17 C-5 16 -3 15 -1 14 C-0.33206156 11.08969679 0.16462985 8.92359906 0 6 C-1.77154652 3.47409152 -1.77154652 3.47409152 -4 2 C-8.41522109 3.26974972 -8.41522109 3.26974972 -12 6 C-11.66411682 3.48087612 -11.42645046 2.32803881 -9.375 0.75 C-6.14133835 -0.27115631 -3.36767564 -0.24945745 0 0 Z " fill="#0F365E" transform="translate(148,26)"/>
<path d="M0 0 C0.99 0 1.98 0 3 0 C4.31626692 3.61973402 5 6.09567131 5 10 C5.66 10 6.32 10 7 10 C8.4783226 12.95664519 8.06032783 15.74229737 8 19 C7.71125 18.360625 7.4225 17.72125 7.125 17.0625 C6.17176549 14.84793921 6.17176549 14.84793921 4 14 C3.87625 13.030625 3.7525 12.06125 3.625 11.0625 C3.315625 9.5465625 3.315625 9.5465625 3 8 C1.03327085 6.8499169 1.03327085 6.8499169 -1 6 C-1.875 4 -1.875 4 -2 2 C-1.34 1.34 -0.68 0.68 0 0 Z " fill="#04336F" transform="translate(11,33)"/>
<path d="M0 0 C3 1 6 2 9 3 C9.66 6.63 10.32 10.26 11 14 C10.01 13.67 9.02 13.34 8 13 C8 12.34 8 11.68 8 11 C7.34 11 6.68 11 6 11 C2 4.25 2 4.25 2 2 C1.34 2 0.68 2 0 2 C0 1.34 0 0.68 0 0 Z " fill="#2D6998" transform="translate(11,45)"/>
<path d="M0 0 C7.75 0.875 7.75 0.875 10 2 C9.67 3.65 9.34 5.3 9 7 C8.01 7 7.02 7 6 7 C6 6.34 6 5.68 6 5 C3.03 4.505 3.03 4.505 0 4 C0 2.68 0 1.36 0 0 Z " fill="#095CA5" transform="translate(28,26)"/>
<path d="M0 0 C-0.33 3.3 -0.66 6.6 -1 10 C-1.99 10 -2.98 10 -4 10 C-4.66 11.65 -5.32 13.3 -6 15 C-6.33 15 -6.66 15 -7 15 C-7 13.35 -7 11.7 -7 10 C-6.34 10 -5.68 10 -5 10 C-5 7.03 -5 4.06 -5 1 C-2 0 -2 0 0 0 Z " fill="#08579D" transform="translate(59,38)"/>
<path d="M0 0 C0.66 0 1.32 0 2 0 C2 7.26 2 14.52 2 22 C0.35 22 -1.3 22 -3 22 C-2.67 20.35 -2.34 18.7 -2 17 C-1.34 17 -0.68 17 0 17 C0 11.39 0 5.78 0 0 Z " fill="#2271A5" transform="translate(125,23)"/>
<path d="M0 0 C0.7425 0.804375 1.485 1.60875 2.25 2.4375 C4.63924443 5.12611805 4.63924443 5.12611805 7.0625 5.375 C7.701875 5.58125 8.34125 5.7875 9 6 C10.046875 8.06640625 10.046875 8.06640625 10.75 10.5625 C10.99234375 11.38878906 11.2346875 12.21507812 11.484375 13.06640625 C11.65453125 13.70449219 11.8246875 14.34257812 12 15 C10.02 14.01 8.04 13.02 6 12 C6 11.01 6 10.02 6 9 C5.34 9 4.68 9 4 9 C0 2.25 0 2.25 0 0 Z " fill="#1C5288" transform="translate(52,17)"/>
<path d="M0 0 C0.33 0 0.66 0 1 0 C1.33 2.64 1.66 5.28 2 8 C-5.84615385 11.69230769 -5.84615385 11.69230769 -10 11 C-10.99 10.01 -11.98 9.02 -13 8 C-8.71 7.34 -4.42 6.68 0 6 C0 4.02 0 2.04 0 0 Z " fill="#15406B" transform="translate(96,37)"/>
<path d="M0 0 C1.32 0.33 2.64 0.66 4 1 C3.01 1 2.02 1 1 1 C1 5.62 1 10.24 1 15 C1.99 15 2.98 15 4 15 C4 17.31 4 19.62 4 22 C2.68 22 1.36 22 0 22 C0 14.74 0 7.48 0 0 Z " fill="#1F74AC" transform="translate(102,24)"/>
<path d="M0 0 C-3.13498292 1.85776765 -5.37471432 2.20140476 -9 2 C-9 2.99 -9 3.98 -9 5 C-11.31 4.67 -13.62 4.34 -16 4 C-16.33 3.01 -16.66 2.02 -17 1 C-14.06130959 0.02043653 -11.57352919 -0.33582387 -8.5 -0.625 C-7.5409375 -0.72039063 -6.581875 -0.81578125 -5.59375 -0.9140625 C-3 -1 -3 -1 0 0 Z " fill="#054F9C" transform="translate(57,31)"/>
<path d="M0 0 C0.99 0.495 0.99 0.495 2 1 C2.33 1.99 2.66 2.98 3 4 C3.99 4.33 4.98 4.66 6 5 C6.28875 5.66 6.5775 6.32 6.875 7 C7.8553382 9.29150599 7.8553382 9.29150599 10.625 9.75 C11.40875 9.8325 12.1925 9.915 13 10 C13.66 9.01 14.32 8.02 15 7 C15.33 8.98 15.66 10.96 16 13 C14.25 13.6640625 14.25 13.6640625 12 14 C7.20225233 11.50742016 2.9299919 7.51707085 0 3 C0 2.01 0 1.02 0 0 Z " fill="#6D90AE" transform="translate(9,48)"/>
<path d="M0 0 C0.33 0.99 0.66 1.98 1 3 C0.67 3.66 0.34 4.32 0 5 C-3.63 4.67 -7.26 4.34 -11 4 C-11 4.66 -11 5.32 -11 6 C-11.66 6 -12.32 6 -13 6 C-13 4.68 -13 3.36 -13 2 C-9.03230578 0.01615289 -4.14470514 0.67369435 0 2 C0 1.34 0 0.68 0 0 Z " fill="#14355A" transform="translate(240,24)"/>
<path d="M0 0 C4.314087 0.49023716 6.63898767 1.31119014 10 4 C11.0828125 4.2475 11.0828125 4.2475 12.1875 4.5 C12.785625 4.665 13.38375 4.83 14 5 C14.33 5.99 14.66 6.98 15 8 C15.99 8.66 16.98 9.32 18 10 C15.525 9.505 15.525 9.505 13 9 C13 8.34 13 7.68 13 7 C12.22914062 6.79503906 11.45828125 6.59007812 10.6640625 6.37890625 C9.66117188 6.10949219 8.65828125 5.84007812 7.625 5.5625 C6.62726562 5.29566406 5.62953125 5.02882813 4.6015625 4.75390625 C2 4 2 4 0 3 C0 2.01 0 1.02 0 0 Z " fill="#05397C" transform="translate(25,21)"/>
<path d="M0 0 C0.33 0.66 0.66 1.32 1 2 C0.360625 2.12375 -0.27875 2.2475 -0.9375 2.375 C-1.618125 2.58125 -2.29875 2.7875 -3 3 C-3.33 3.66 -3.66 4.32 -4 5 C-4.886875 4.79375 -5.77375 4.5875 -6.6875 4.375 C-10.2252711 3.97449761 -11.86632967 4.43316484 -15 6 C-14 3 -14 3 -11.4375 1.3125 C-7.26517203 -0.28057068 -4.42993262 -0.22913445 0 0 Z " fill="#747F89" transform="translate(35,3)"/>
<path d="M0 0 C0.33 0 0.66 0 1 0 C1 4.95 1 9.9 1 15 C2.32 14.34 3.64 13.68 5 13 C5 15.31 5 17.62 5 20 C3.35 20 1.7 20 0 20 C0 13.4 0 6.8 0 0 Z " fill="#1B6FA7" transform="translate(159,24)"/>
<path d="M0 0 C2.91517292 1.07401108 4.77810176 1.77810176 7 4 C6.64644564 6.26274788 6.02455574 7.95088852 5 10 C2.03 9.67 -0.94 9.34 -4 9 C-4 8.67 -4 8.34 -4 8 C-1.69 8 0.62 8 3 8 C2.67 6.02 2.34 4.04 2 2 C1.34 2 0.68 2 0 2 C0 1.34 0 0.68 0 0 Z " fill="#6D747A" transform="translate(27,34)"/>
<path d="M0 0 C2.375 -0.125 2.375 -0.125 5 0 C5.66 0.66 6.32 1.32 7 2 C6.625 4.125 6.625 4.125 6 6 C4.02 6.33 2.04 6.66 0 7 C0 4.69 0 2.38 0 0 Z " fill="#88F3FB" transform="translate(44,18)"/>
<path d="M0 0 C0.67417969 0.64453125 1.34835938 1.2890625 2.04296875 1.953125 C5.65882661 4.45604378 7.95457838 4.58708704 12.3125 4.75 C14.19388672 4.83507813 14.19388672 4.83507813 16.11328125 4.921875 C17.06589844 4.94765625 18.01851562 4.9734375 19 5 C16.52996665 7.47003335 14.50550763 7.6826199 11.09765625 8.03515625 C7.01737967 7.96677173 4.16618575 5.97182146 1.125 3.4375 C0 2 0 2 0 0 Z " fill="#113259" transform="translate(131,40)"/>
<path d="M0 0 C0.66 0.33 1.32 0.66 2 1 C2 2.98 2 4.96 2 7 C-0.64458379 8.32229189 -2.67761301 8.09677194 -5.625 8.0625 C-6.62789063 8.05347656 -7.63078125 8.04445313 -8.6640625 8.03515625 C-9.43492188 8.02355469 -10.20578125 8.01195312 -11 8 C-11.66 6.35 -12.32 4.7 -13 3 C-12.01 3.33 -11.02 3.66 -10 4 C-10 4.66 -10 5.32 -10 6 C-7.36 6 -4.72 6 -2 6 C-1.34 4.02 -0.68 2.04 0 0 Z " fill="#4099C6" transform="translate(94,36)"/>
<path d="M0 0 C0.33 0 0.66 0 1 0 C1 2.97 1 5.94 1 9 C1.99 9 2.98 9 4 9 C4 11.31 4 13.62 4 16 C3.34 16 2.68 16 2 16 C1.67 16.66 1.34 17.32 1 18 C-0.59412284 14.81175432 -0.10174735 11.37103338 -0.0625 7.875 C-0.05798828 7.12089844 -0.05347656 6.36679687 -0.04882812 5.58984375 C-0.03703499 3.72652873 -0.01909942 1.86325445 0 0 Z " fill="#164D7D" transform="translate(199,24)"/>
<path d="M0 0 C1.54227748 3.08455497 0.17818414 5.10573589 -0.875 8.3125 C-2.14201504 12.19771746 -3.2897758 15.97287766 -4 20 C-4.33 20 -4.66 20 -5 20 C-5.61046468 11.86047097 -5.2922002 6.4262431 0 0 Z " fill="#A3DEF4" transform="translate(9,15)"/>
<path d="M0 0 C3.66060821 0.58536753 5.54535164 2.083239 8.25 4.5625 C8.95640625 5.20316406 9.6628125 5.84382812 10.390625 6.50390625 C10.92171875 6.99761719 11.4528125 7.49132812 12 8 C11.67 8.99 11.34 9.98 11 11 C10.67 10.01 10.34 9.02 10 8 C7.98491642 7.26676204 7.98491642 7.26676204 6 7 C6.33 6.34 6.66 5.68 7 5 C6.01 5.33 5.02 5.66 4 6 C2.62437146 4.71034824 1.29233607 3.37310707 0 2 C0 1.34 0 0.68 0 0 Z " fill="#A7B7C0" transform="translate(48,4)"/>
<path d="M0 0 C0.33 0 0.66 0 1 0 C2.269698 5.37179924 2.31303879 8.12474726 -0.4375 13 C-1.27182768 14.34583647 -2.11954062 15.6838808 -3 17 C-4.56393356 13.02623171 -3.36145292 10.18622097 -2.0625 6.25 C-1.68222656 5.07953125 -1.30195312 3.9090625 -0.91015625 2.703125 C-0.60980469 1.81109375 -0.30945313 0.9190625 0 0 Z " fill="#2197D1" transform="translate(9,17)"/>
<path d="M0 0 C1.67542976 0.28604898 3.34385343 0.61781233 5 1 C5 2.32 5 3.64 5 5 C2 6 2 6 -1 5 C-1 5.66 -1 6.32 -1 7 C-1.66 7 -2.32 7 -3 7 C-1.125 1.125 -1.125 1.125 0 0 Z " fill="#1BD9F3" transform="translate(44,9)"/>
<path d="M0 0 C2.0625 0.4375 2.0625 0.4375 4 1 C3.34 2.98 2.68 4.96 2 7 C2.66 7.33 3.32 7.66 4 8 C4.625 10.5625 4.625 10.5625 5 13 C4.34 12.67 3.68 12.34 3 12 C3 11.34 3 10.68 3 10 C2.01 9.67 1.02 9.34 0 9 C-0.87890625 2.84765625 -0.87890625 2.84765625 -1 1 C-0.67 0.67 -0.34 0.34 0 0 Z " fill="#8194A5" transform="translate(10,13)"/>
<path d="M0 0 C1.62463842 -0.05395478 3.24978541 -0.09277195 4.875 -0.125 C5.77992187 -0.14820312 6.68484375 -0.17140625 7.6171875 -0.1953125 C10 0 10 0 12 2 C11.625 4.125 11.625 4.125 11 6 C11 5.01 11 4.02 11 3 C7.7 3 4.4 3 1 3 C0.67 2.01 0.34 1.02 0 0 Z " fill="#326A9B" transform="translate(87,32)"/>
<path d="M0 0 C3.01399879 4.52099819 3.12108347 7.86032065 3.0625 13.25 C3.05347656 14.32765625 3.04445313 15.4053125 3.03515625 16.515625 C3.02355469 17.33546875 3.01195312 18.1553125 3 19 C2.67 19 2.34 19 2 19 C1.67 16.03 1.34 13.06 1 10 C-3.455 10.495 -3.455 10.495 -8 11 C-4 9 -4 9 0 7 C0 4.69 0 2.38 0 0 Z " fill="#052B63" transform="translate(57,26)"/>
<path d="M0 0 C2.50037734 2.17424117 3.43628586 3.73045798 4 7 C1.525 6.01 1.525 6.01 -1 5 C-1 6.32 -1 7.64 -1 9 C-1.66 9 -2.32 9 -3 9 C-3 6.36 -3 3.72 -3 1 C-2.01 0.67 -1.02 0.34 0 0 Z " fill="#39E3F4" transform="translate(106,24)"/>
<path d="M0 0 C-3.49716362 1.99392848 -6.02269629 2.04964306 -10.046875 1.9453125 C-12.69701927 2.01951654 -14.631296 2.84765751 -17 4 C-18.66666667 4.66666667 -20.33333333 5.33333333 -22 6 C-22 5.01 -22 4.02 -22 3 C-14.69065285 -0.50848663 -8.00945568 -0.30372936 0 0 Z " fill="#456081" transform="translate(40,0)"/>
<path d="M0 0 C5.28 0 10.56 0 16 0 C16.33 0.66 16.66 1.32 17 2 C13.76127868 3.07957377 11.33971795 3.13326784 7.9375 3.125 C6.87402344 3.12757812 5.81054688 3.13015625 4.71484375 3.1328125 C2 3 2 3 0 2 C0 1.34 0 0.68 0 0 Z " fill="#0A5DA3" transform="translate(26,60)"/>
<path d="M0 0 C0.33 1.32 0.66 2.64 1 4 C1.66 4 2.32 4 3 4 C3 6.31 3 8.62 3 11 C2.01 11.33 1.02 11.66 0 12 C0 9.69 0 7.38 0 5 C-0.99 4.67 -1.98 4.34 -3 4 C-2.01 2.68 -1.02 1.36 0 0 Z " fill="#14426E" transform="translate(122,29)"/>
<path d="M0 0 C0 0.66 0 1.32 0 2 C0.99 2.33 1.98 2.66 3 3 C4.6875 5.5625 4.6875 5.5625 6 8 C5.4225 7.67 4.845 7.34 4.25 7 C1.80116138 5.72924102 1.80116138 5.72924102 -2 6 C-2 5.34 -2 4.68 -2 4 C-2.66 4 -3.32 4 -4 4 C-3.34 5.32 -2.68 6.64 -2 8 C-3.32 7.34 -4.64 6.68 -6 6 C-4.90218919 2.70656758 -3.7827394 0 0 0 Z " fill="#5B83A0" transform="translate(55,9)"/>
<path d="M0 0 C0.66 0.33 1.32 0.66 2 1 C1.67 1.99 1.34 2.98 1 4 C0.01 3.34 -0.98 2.68 -2 2 C-2.33 3.65 -2.66 5.3 -3 7 C-3.99 6.67 -4.98 6.34 -6 6 C-5.34 5.67 -4.68 5.34 -4 5 C-4 4.34 -4 3.68 -4 3 C-5.98 2.34 -7.96 1.68 -10 1 C-6.41687463 -1.34281274 -4.0803831 -0.97574378 0 0 Z " fill="#0F2C51" transform="translate(238,36)"/>
<path d="M0 0 C0.66 1.32 1.32 2.64 2 4 C1.01 5.485 1.01 5.485 0 7 C-0.38499891 8.65549531 -0.72793135 10.3222433 -1 12 C-1.33 12 -1.66 12 -2 12 C-2 10.35 -2 8.7 -2 7 C-3.32 7.33 -4.64 7.66 -6 8 C-6 7.01 -6 6.02 -6 5 C-4.36368108 3.95107762 -2.69514137 2.95093297 -1 2 C-0.67 1.34 -0.34 0.68 0 0 Z " fill="#1C4D83" transform="translate(16,26)"/>
<path d="M0 0 C0.90105469 0.00902344 1.80210937 0.01804687 2.73046875 0.02734375 C3.41753906 0.03894531 4.10460937 0.05054687 4.8125 0.0625 C4.8125 0.3925 4.8125 0.7225 4.8125 1.0625 C4.255625 1.05347656 3.69875 1.04445313 3.125 1.03515625 C-3.92951468 1.30923368 -7.3941935 4.06022101 -12.1875 9.0625 C-12.5175 8.4025 -12.8475 7.7425 -13.1875 7.0625 C-8.9842745 1.72326761 -7.05192236 -0.09158341 0 0 Z " fill="#154569" transform="translate(143.1875,21.9375)"/>
<path d="M0 0 C0.33 0.66 0.66 1.32 1 2 C-1.10515339 5.72450216 -2.24267224 7.6795921 -6.25 9.375 C-7.61125 9.684375 -7.61125 9.684375 -9 10 C-9 10.99 -9 11.98 -9 13 C-9.66 12.67 -10.32 12.34 -11 12 C-8.76238659 7.52477318 -6.16808101 5.66047724 -2 3 C-1.34 2.01 -0.68 1.02 0 0 Z " fill="#0F335E" transform="translate(39,39)"/>
<path d="M0 0 C5.46835443 0.48607595 5.46835443 0.48607595 7.875 2.8125 C9 5 9 5 9 9 C8.01 9 7.02 9 6 9 C5.566875 8.071875 5.13375 7.14375 4.6875 6.1875 C3.27961373 3.52815927 2.23876444 1.91894095 0 0 Z " fill="#41D3EA" transform="translate(145,24)"/>
<path d="M0 0 C0.99 0.33 1.98 0.66 3 1 C3 1.66 3 2.32 3 3 C4.1446875 3.0928125 4.1446875 3.0928125 5.3125 3.1875 C8 4 8 4 9.8125 6.5625 C10.204375 7.366875 10.59625 8.17125 11 9 C7.11438576 8.42435345 4.95386643 6.48746646 2 4 C1.34 3.67 0.68 3.34 0 3 C0 2.01 0 1.02 0 0 Z " fill="#1981C1" transform="translate(42,3)"/>
<path d="M0 0 C0 4.38968456 -2.12805101 5.76905739 -5 9 C-6.32 8.67 -7.64 8.34 -9 8 C-6.61229661 4.28579473 -3.72114571 2.31537955 0 0 Z " fill="#316997" transform="translate(56,53)"/>
<path d="M0 0 C2 1.125 2 1.125 4 3 C4.25 6.1875 4.25 6.1875 4 9 C2.68 9 1.36 9 0 9 C0.33 11.31 0.66 13.62 1 16 C0.34 16.33 -0.32 16.66 -1 17 C-2.03159626 13.90521121 -1.97482862 12.47368607 -1.5625 9.3125 C-1.46066406 8.50425781 -1.35882813 7.69601563 -1.25390625 6.86328125 C-1.17011719 6.24839844 -1.08632812 5.63351563 -1 5 C-0.67 5.99 -0.34 6.98 0 8 C0.99 8 1.98 8 3 8 C2.5359375 6.8553125 2.5359375 6.8553125 2.0625 5.6875 C1.32106407 3.81210323 0.63771783 1.91315348 0 0 Z " fill="#3280AC" transform="translate(151,25)"/>
<path d="M0 0 C2.97 0.495 2.97 0.495 6 1 C5.67 2.32 5.34 3.64 5 5 C3.02 5 1.04 5 -1 5 C-0.67 3.35 -0.34 1.7 0 0 Z " fill="#064F97" transform="translate(42,35)"/>
<path d="M0 0 C0.33 0 0.66 0 1 0 C1.66 3.63 2.32 7.26 3 11 C1.02 10.34 -0.96 9.68 -3 9 C-3 7.68 -3 6.36 -3 5 C-2.34 5 -1.68 5 -1 5 C-0.67 3.35 -0.34 1.7 0 0 Z " fill="#165580" transform="translate(80,29)"/>
<path d="M0 0 C0 2.97 0 5.94 0 9 C-0.99 9 -1.98 9 -3 9 C-3 7.68 -3 6.36 -3 5 C-3.66 4.67 -4.32 4.34 -5 4 C-4.67 3.01 -4.34 2.02 -4 1 C-1 0 -1 0 0 0 Z " fill="#1DDFF2" transform="translate(126,24)"/>
<path d="M0 0 C3.96 0 7.92 0 12 0 C12 0.99 12 1.98 12 3 C8.04 3 4.08 3 0 3 C0 2.01 0 1.02 0 0 Z " fill="#54AFCE" transform="translate(228,23)"/>
<path d="M0 0 C0.66 0.33 1.32 0.66 2 1 C0.54718935 6.32697239 -3.08111378 9.36402802 -7 13 C-7.66 12.67 -8.32 12.34 -9 12 C-8.51789062 11.46890625 -8.03578125 10.9378125 -7.5390625 10.390625 C-6.90742187 9.68421875 -6.27578125 8.9778125 -5.625 8.25 C-4.68527344 7.20585938 -4.68527344 7.20585938 -3.7265625 6.140625 C-2.12494817 4.15491312 -1.03479932 2.32045907 0 0 Z " fill="#1F5890" transform="translate(61,47)"/>
<path d="M0 0 C0.268125 0.639375 0.53625 1.27875 0.8125 1.9375 C1.88667752 4.33131686 1.88667752 4.33131686 5 5 C4.34 6.98 3.68 8.96 3 11 C1.5 10 1.5 10 0 8 C-0.27345479 5.28153765 -0.13491285 2.74322801 0 0 Z " fill="#A8B0B5" transform="translate(20,47)"/>
<path d="M0 0 C0.79664063 0.49113281 0.79664063 0.49113281 1.609375 0.9921875 C4.62694157 2.2642989 6.98693023 2.1959363 10.25 2.125 C11.86648437 2.09792969 11.86648437 2.09792969 13.515625 2.0703125 C14.33546875 2.04710937 15.1553125 2.02390625 16 2 C15.67 2.66 15.34 3.32 15 4 C10.42860035 5.2799919 6.84337141 5.34030776 2.4375 3.5625 C1.633125 3.046875 0.82875 2.53125 0 2 C0 1.34 0 0.68 0 0 Z " fill="#0E3054" transform="translate(200,43)"/>
<path d="M0 0 C4.05606165 0.46800711 7.46588679 0.87953208 11 3 C10 4 10 4 6.625 4.1875 C3 4 3 4 0 2 C0 1.34 0 0.68 0 0 Z " fill="#48AACE" transform="translate(225,41)"/>
<path d="M0 0 C3.465 1.485 3.465 1.485 7 3 C5.02 5.97 5.02 5.97 3 9 C2.01 8.67 1.02 8.34 0 8 C0.99 7.67 1.98 7.34 3 7 C3 6.01 3 5.02 3 4 C2.01 3.67 1.02 3.34 0 3 C0 2.01 0 1.02 0 0 Z " fill="#8E949A" transform="translate(33,35)"/>
<path d="M0 0 C0.66 0 1.32 0 2 0 C2.99 1.98 3.98 3.96 5 6 C2.36 6.33 -0.28 6.66 -3 7 C-1.125 2.25 -1.125 2.25 0 0 Z " fill="#156BAF" transform="translate(11,23)"/>
<path d="M0 0 C6.64615385 1.47692308 6.64615385 1.47692308 8.4375 4.125 C8.7159375 5.053125 8.7159375 5.053125 9 6 C8.01 5.67 7.02 5.34 6 5 C5.67 5.33 5.34 5.66 5 6 C4.01 5.67 3.02 5.34 2 5 C0.8125 2.4375 0.8125 2.4375 0 0 Z " fill="#C4CDD2" transform="translate(51,13)"/>
<path d="M0 0 C1.98 0.495 1.98 0.495 4 1 C4.33 2.65 4.66 4.3 5 6 C6.32 5.67 7.64 5.34 9 5 C8.01 5.99 7.02 6.98 6 8 C2.535 6.02 2.535 6.02 -1 4 C-0.67 2.68 -0.34 1.36 0 0 Z " fill="#A4ABB1" transform="translate(16,10)"/>
<path d="M0 0 C0.66 0.33 1.32 0.66 2 1 C2.103125 1.721875 2.20625 2.44375 2.3125 3.1875 C3.27225743 7.1137804 5.29855295 9.02148146 8 12 C6.68 12 5.36 12 4 12 C2.375 9.5625 2.375 9.5625 1 7 C0.34 6.67 -0.32 6.34 -1 6 C-1.042721 4.33388095 -1.04063832 2.66617115 -1 1 C-0.67 0.67 -0.34 0.34 0 0 Z " fill="#086AB6" transform="translate(31,14)"/>
<path d="M0 0 C0.99 0 1.98 0 3 0 C3 2.97 3 5.94 3 9 C2.01 9 1.02 9 0 9 C0 6.03 0 3.06 0 0 Z " fill="#22D8EE" transform="translate(200,24)"/>
<path d="M0 0 C0 0.33 0 0.66 0 1 C-0.66386719 1.00257812 -1.32773438 1.00515625 -2.01171875 1.0078125 C-7.24557937 1.11851533 -7.24557937 1.11851533 -11.77734375 3.40234375 C-13.29931277 5.21303982 -13.29931277 5.21303982 -15 8 C-15.33 6.68 -15.66 5.36 -16 4 C-11.34158975 -1.14031476 -6.42886252 -0.40532233 0 0 Z " fill="#295270" transform="translate(238,22)"/>
<path d="M0 0 C0 0.66 0 1.32 0 2 C3.96 2 7.92 2 12 2 C12 2.33 12 2.66 12 3 C9.39555652 3.05394705 6.79223002 3.09364469 4.1875 3.125 C3.44951172 3.14175781 2.71152344 3.15851563 1.95117188 3.17578125 C-1.91246426 3.21074628 -3.70903668 3.19397555 -7 1 C-4.50935112 0.31292445 -2.62113708 0 0 0 Z " fill="#04173A" transform="translate(29,63)"/>
<path d="M0 0 C0.33 0 0.66 0 1 0 C1.33 2.31 1.66 4.62 2 7 C2.66 7 3.32 7 4 7 C3.67 7.99 3.34 8.98 3 10 C1.35 10.33 -0.3 10.66 -2 11 C-1.34 7.37 -0.68 3.74 0 0 Z " fill="#1E7FB7" transform="translate(214,33)"/>
<path d="M0 0 C2.25 0.25 2.25 0.25 4 1 C4 2.32 4 3.64 4 5 C1.36 4.67 -1.28 4.34 -4 4 C-2.25 1.9375 -2.25 1.9375 0 0 Z " fill="#585F66" transform="translate(26,37)"/>
<path d="M0 0 C0.33 0.66 0.66 1.32 1 2 C-0.43359375 4.6015625 -0.43359375 4.6015625 -2.4375 7.625 C-3.42556641 9.12933594 -3.42556641 9.12933594 -4.43359375 10.6640625 C-4.95050781 11.43492188 -5.46742188 12.20578125 -6 13 C-7 10 -7 10 -6.07421875 8.02734375 C-5.61660156 7.33769531 -5.15898438 6.64804687 -4.6875 5.9375 C-4.23761719 5.24527344 -3.78773437 4.55304687 -3.32421875 3.83984375 C-2 2 -2 2 0 0 Z " fill="#3C77A8" transform="translate(9,10)"/>
<path d="M0 0 C4.54805635 -0.17835515 7.8794254 0.00214565 12 2 C11.67 2.99 11.34 3.98 11 5 C10.01 5 9.02 5 8 5 C7.67 4.34 7.34 3.68 7 3 C4.6859378 2.26924352 2.35171131 1.59861742 0 1 C0 0.67 0 0.34 0 0 Z " fill="#5F86A2" transform="translate(37,1)"/>
<path d="M0 0 C1.051875 0.309375 2.10375 0.61875 3.1875 0.9375 C6.12752396 1.75685094 9.00161623 2.45483931 12 3 C10 5 10 5 7.125 5.4375 C4 5 4 5 1.625 2.5 C0.820625 1.2625 0.820625 1.2625 0 0 Z " fill="#153461" transform="translate(16,59)"/>
<path d="M0 0 C0.33 1.32 0.66 2.64 1 4 C1.66 4 2.32 4 3 4 C4.4783226 6.95664519 4.06032783 9.74229737 4 13 C3.71125 12.360625 3.4225 11.72125 3.125 11.0625 C2.17176549 8.84793921 2.17176549 8.84793921 0 8 C0 5.36 0 2.72 0 0 Z " fill="#154678" transform="translate(15,39)"/>
<path d="M0 0 C0.99 0.33 1.98 0.66 3 1 C2.125 5.875 2.125 5.875 1 7 C-1.33297433 7.04092937 -3.66705225 7.04241723 -6 7 C-4 5.66666667 -2 4.33333333 0 3 C0 2.01 0 1.02 0 0 Z " fill="#194A76" transform="translate(151,38)"/>
<path d="M0 0 C1.32 0.66 2.64 1.32 4 2 C3.34 2.66 2.68 3.32 2 4 C3.32 4.99 4.64 5.98 6 7 C1.48279689 7.36625971 1.48279689 7.36625971 -0.8125 5.625 C-2 4 -2 4 -2 2 C-1.34 2 -0.68 2 0 2 C0 1.34 0 0.68 0 0 Z " fill="#3083B3" transform="translate(135,38)"/>
<path d="M0 0 C0.99 0.33 1.98 0.66 3 1 C2.21625 1.391875 1.4325 1.78375 0.625 2.1875 C-2.35156418 4.24274669 -2.98823563 5.59679258 -4 9 C-4.99 9 -5.98 9 -7 9 C-6.75881648 5.74402242 -5.47775788 4.2723696 -3.125 2.1875 C-2.09375 1.465625 -1.0625 0.74375 0 0 Z " fill="#21CAE9" transform="translate(138,24)"/>
<path d="M0 0 C0.66 0 1.32 0 2 0 C2.99 3.3 3.98 6.6 5 10 C4.01 10 3.02 10 2 10 C-0.4294516 6.3558226 -0.16179575 4.28758728 0 0 Z " fill="#11D7F5" transform="translate(39,16)"/>
<path d="M0 0 C-0.33 1.98 -0.66 3.96 -1 6 C-3.97 5.505 -3.97 5.505 -7 5 C-2.25 -0 -2.25 -0 0 0 Z " fill="#B0C2CD" transform="translate(35,8)"/>
<path d="M0 0 C0.33 0 0.66 0 1 0 C1 1.98 1 3.96 1 6 C0.01 6 -0.98 6 -2 6 C-2.66 7.65 -3.32 9.3 -4 11 C-4.33 11 -4.66 11 -5 11 C-5.25 8.75 -5.25 8.75 -5 6 C-3.0625 3.8125 -3.0625 3.8125 -1 2 C-0.67 1.34 -0.34 0.68 0 0 Z " fill="#0B63A5" transform="translate(57,42)"/>
<path d="M0 0 C0.66 0 1.32 0 2 0 C2.1953125 6.0546875 2.1953125 6.0546875 2 8 C1.34 8.66 0.68 9.32 0 10 C-1.125 3.375 -1.125 3.375 0 0 Z " fill="#0D5EA3" transform="translate(62,34)"/>
<path d="M0 0 C2.475 0.495 2.475 0.495 5 1 C5 2.65 5 4.3 5 6 C3.68 6.33 2.36 6.66 1 7 C0.67 4.69 0.34 2.38 0 0 Z " fill="#0D365C" transform="translate(129,33)"/>
<path d="M0 0 C0.66 0.33 1.32 0.66 2 1 C1.67 3.97 1.34 6.94 1 10 C0.01 10 -0.98 10 -2 10 C-2 8.02 -2 6.04 -2 4 C-1.34 4 -0.68 4 0 4 C0 2.68 0 1.36 0 0 Z " fill="#133A5E" transform="translate(105,29)"/>
<path d="M0 0 C2.64 0 5.28 0 8 0 C8 0.66 8 1.32 8 2 C8.66 2.33 9.32 2.66 10 3 C8.35 3.33 6.7 3.66 5 4 C5 3.67 5 3.34 5 3 C3.35 2.67 1.7 2.34 0 2 C0 1.34 0 0.68 0 0 Z " fill="#636A71" transform="translate(19,34)"/>
<path d="M0 0 C1.98 0.495 1.98 0.495 4 1 C4.33 3.31 4.66 5.62 5 8 C4.34 8 3.68 8 3 8 C2.67 6.35 2.34 4.7 2 3 C1.01 3.33 0.02 3.66 -1 4 C-0.67 2.68 -0.34 1.36 0 0 Z " fill="#92999F" transform="translate(18,8)"/>
<path d="M0 0 C0.66 0 1.32 0 2 0 C2 0.66 2 1.32 2 2 C3.65 2.33 5.3 2.66 7 3 C4.33440687 4.77706209 1.9719385 5.87548273 -1 7 C-1 6.34 -1 5.68 -1 5 C-0.34 4.67 0.32 4.34 1 4 C0.67 2.68 0.34 1.36 0 0 Z " fill="#3CAADE" transform="translate(39,4)"/>
<path d="M0 0 C2.31 0 4.62 0 7 0 C6.67 1.32 6.34 2.64 6 4 C4.02 3.34 2.04 2.68 0 2 C0 1.34 0 0.68 0 0 Z " fill="#085FAA" transform="translate(40,32)"/>
<path d="M0 0 C0.99 0.33 1.98 0.66 3 1 C2.67 2.65 2.34 4.3 2 6 C2.99 6.33 3.98 6.66 5 7 C6.1875 9.0625 6.1875 9.0625 7 11 C5 10 3 9 1 8 C0.40644386 5.35139573 0.25790731 2.70802678 0 0 Z " fill="#0B5499" transform="translate(28,14)"/>
<path d="M0 0 C0.99 0 1.98 0 3 0 C2.67 2.97 2.34 5.94 2 9 C1.34 9 0.68 9 0 9 C0 6.03 0 3.06 0 0 Z " fill="#29E5F8" transform="translate(216,24)"/>
<path d="M0 0 C-0.4640625 1.1446875 -0.4640625 1.1446875 -0.9375 2.3125 C-1.67893593 4.18789677 -2.36228217 6.08684652 -3 8 C-3.66 8 -4.32 8 -5 8 C-5.36625971 3.48279689 -5.36625971 3.48279689 -3.625 1.1875 C-2 0 -2 0 0 0 Z " fill="#23D0E9" transform="translate(82,26)"/>
<path d="M0 0 C0.99 0 1.98 0 3 0 C2.67 2.97 2.34 5.94 2 9 C1.34 9 0.68 9 0 9 C0 6.03 0 3.06 0 0 Z " fill="#2CE7F8" transform="translate(182,24)"/>
<path d="M0 0 C1.2065625 0.0309375 1.2065625 0.0309375 2.4375 0.0625 C1.4475 0.7225 0.4575 1.3825 -0.5625 2.0625 C-1.14243699 4.25704681 -1.14243699 4.25704681 -1.25 6.6875 C-1.31574219 7.50476563 -1.38148438 8.32203125 -1.44921875 9.1640625 C-1.50529297 10.10378906 -1.50529297 10.10378906 -1.5625 11.0625 C-1.8925 11.0625 -2.2225 11.0625 -2.5625 11.0625 C-2.75656478 9.41742782 -2.94257935 7.77140406 -3.125 6.125 C-3.22941406 5.20847656 -3.33382812 4.29195312 -3.44140625 3.34765625 C-3.48136719 2.59355469 -3.52132812 1.83945312 -3.5625 1.0625 C-2.5625 0.0625 -2.5625 0.0625 0 0 Z " fill="#1C476E" transform="translate(182.5625,21.9375)"/>
<path d="M0 0 C0.99 0.33 1.98 0.66 3 1 C3 1.99 3 2.98 3 4 C3.66 4.33 4.32 4.66 5 5 C4.67 5.66 4.34 6.32 4 7 C2.68 6.67 1.36 6.34 0 6 C0 4.02 0 2.04 0 0 Z " fill="#1C74AE" transform="translate(235,37)"/>
<path d="M0 0 C2.475 0.99 2.475 0.99 5 2 C5 3.65 5 5.3 5 7 C4.01 7 3.02 7 2 7 C1.34 4.69 0.68 2.38 0 0 Z " fill="#24D1EB" transform="translate(171,25)"/>
<path d="M0 0 C3.3 0.33 6.6 0.66 10 1 C8.515 2.485 8.515 2.485 7 4 C4.8125 3.6875 4.8125 3.6875 3 3 C3 2.34 3 1.68 3 1 C2.01 0.67 1.02 0.34 0 0 Z " fill="#0C5195" transform="translate(20,24)"/>
<path d="M0 0 C0.99 0 1.98 0 3 0 C3.33 1.32 3.66 2.64 4 4 C2.35 5.32 0.7 6.64 -1 8 C-0.67 5.36 -0.34 2.72 0 0 Z " fill="#124F88" transform="translate(58,43)"/>
<path d="M0 0 C0.66 0 1.32 0 2 0 C3.03039555 4.53374042 3.17766075 5.64467851 1 10 C0.67 6.7 0.34 3.4 0 0 Z " fill="#3270B3" transform="translate(0,34)"/>
<path d="M0 0 C0.103125 0.639375 0.20625 1.27875 0.3125 1.9375 C0.539375 2.618125 0.76625 3.29875 1 4 C1.99 4.33 2.98 4.66 4 5 C3.01 5.33 2.02 5.66 1 6 C0.34 6.66 -0.32 7.32 -1 8 C-2.2077558 4.37673261 -1.54311128 3.35853631 0 0 Z " fill="#3A6893" transform="translate(19,21)"/>
<path d="M0 0 C1.32 0.33 2.64 0.66 4 1 C4 2.32 4 3.64 4 5 C2.68 5 1.36 5 0 5 C0 3.35 0 1.7 0 0 Z " fill="#1A80BF" transform="translate(181,39)"/>
<path d="M0 0 C0.99 0 1.98 0 3 0 C3 1.98 3 3.96 3 6 C2.01 5.67 1.02 5.34 0 5 C0 3.35 0 1.7 0 0 Z " fill="#103359" transform="translate(215,33)"/>
<path d="M0 0 C1.32 0.66 2.64 1.32 4 2 C4 2.99 4 3.98 4 5 C3.01 5.33 2.02 5.66 1 6 C-0.0625 4.125 -0.0625 4.125 -1 2 C-0.67 1.34 -0.34 0.68 0 0 Z " fill="#969FA5" transform="translate(56,17)"/>
<path d="M0 0 C2.46800047 1.15173355 4.04783565 2.04783565 6 4 C5.67 4.99 5.34 5.98 5 7 C4.67 6.01 4.34 5.02 4 4 C1.98491642 3.26676204 1.98491642 3.26676204 0 3 C0 2.01 0 1.02 0 0 Z " fill="#CDD6DA" transform="translate(54,8)"/>
</svg>
